<svg width="168" height="212" viewBox="0 0 168 212" fill="none" xmlns="http://www.w3.org/2000/svg">
<path d="M149.887 60.8091C149.031 62.0891 149.031 64.2225 149.459 65.0759" stroke="#637FFD"/>
<path d="M121.222 60.8091C120.794 62.0891 120.794 63.7958 121.222 64.6492M125.5 64.6492C126.356 63.7958 126.783 61.6624 126.356 61.2358" stroke="#637FFD"/>
<path d="M89.9897 178.146L95.1237 180.279" stroke="#637FFD"/>
<path d="M69.4536 172.599C72.8763 176.012 85.2835 188.386 87.8505 190.946C90.4175 193.506 98.9742 203.32 102.825 204.6" stroke="#637FFD"/>
<path d="M82.7165 165.772C85.7113 168.759 86.567 170.039 88.2783 172.172C89.9897 174.306 89.9897 182.413 91.2732 182.413C92.5567 182.413 94.6959 178.999 96.4072 180.706C98.1186 182.413 105.392 193.933 107.103 195.213C108.814 192.226 115.232 185.826 116.943 183.266C118.655 180.706 124.216 171.319 123.789 169.612" stroke="#637FFD"/>
<path d="M123.789 140.171C131.49 145.291 148.603 162.785 149.459 167.052C150.314 171.319 148.175 180.279 145.608 181.559C143.469 178.572 142.613 176.012 141.758 175.586M147.747 167.052C146.464 165.345 142.186 164.919 142.186 167.052C142.186 169.185 143.897 170.465 143.041 172.172C142.186 173.879 141.758 176.012 140.046 176.866C138.335 177.719 136.624 178.999 136.196 179.852C135.768 180.706 131.918 181.559 130.206 181.559C128.495 181.559 111.381 200.76 110.954 202.04M105.82 211C106.675 205.88 106.675 196.493 107.103 195.213" stroke="#637FFD"/>
<path d="M106.675 52.2754C111.381 49.7154 125.928 42.8885 134.057 50.1421C135.34 51.4221 130.634 52.7021 128.923 51.4221C127.211 50.1421 117.799 50.142 115.232 50.5687" stroke="#637FFD"/>
<path d="M140.046 106.89C142.613 106.89 145.608 106.464 146.036 106.037" stroke="#637FFD"/>
<path d="M124.216 100.49C129.347 102.5 146.036 101.344 147.747 100.917" stroke="#637FFD"/>
<path d="M92.9845 41.1819C86.9948 43.742 82.7164 42.4619 82.2886 46.7287C81.8608 50.9955 78.4381 56.969 79.2938 59.9558C80.1494 62.9425 81.433 67.636 81.0052 69.3427M74.5877 71.0494C72.8763 68.0627 70.7371 69.7694 69.8815 67.2093C69.0258 64.6492 65.6031 62.9425 62.6083 62.9425" stroke="#637FFD"/>
<path d="M67.7425 77.4495C67.3147 79.1562 67.3147 80.4362 68.1703 81.2896C69.026 82.1429 70.7373 83.423 69.8816 84.703" stroke="#637FFD"/>
<path d="M65.175 64.2225C59.6131 60.8091 57.4738 61.2358 55.3348 63.3692C53.1957 65.5025 50.2007 70.6227 51.0564 74.8895C51.9122 79.1563 53.1957 85.9831 59.6133 89.3966C66.0308 92.81 67.3143 93.6633 70.3091 93.6633C73.304 93.6633 74.5875 91.9566 74.5875 91.1033M60.4689 131.638C62.6081 123.531 64.7473 113.717 63.8916 109.877C63.2926 107.189 59.0205 94.1879 56.6185 87.2556M135.34 17.7145C134.558 9.39039 128.067 4.48744 118.227 1.07401C110.954 1.07402 103.62 0.907473 94.2678 1.07402C70.3091 1.5007 57.474 18.5679 52.34 25.8214C47.206 33.0749 46.8491 57.8158 47.2061 62.0891C47.3923 64.3173 49.4259 69.3609 50.9077 73.1828" stroke="#637FFD"/>
<path d="M84.0053 25.3948C84.0053 19.4213 83.6529 13.2302 88.7115 12.1677C104.964 8.75424 110.954 13.4477 122.51 16.4345" stroke="#637FFD"/>
<path d="M63.4639 68.9159C61.7526 66.3559 60.0413 64.6491 57.9021 65.5025C55.7629 66.3559 54.0516 70.196 54.0516 72.756C54.0516 75.3161 54.0516 77.8762 54.4794 78.7295M65.1753 77.4495C66.031 75.7428 66.8866 74.4628 65.1753 73.6094C63.4639 72.756 60.8969 74.0361 60.4691 75.3161C60.0413 76.5962 58.7578 80.0096 59.6134 81.2896C60.4691 82.5697 62.6083 83.8497 63.4639 83.423" stroke="#637FFD"/>
<path d="M123.789 169.612C122.933 164.065 121.222 161.079 121.222 158.092C121.222 155.105 124.644 144.438 124.216 142.305C123.789 140.171 123.361 132.918 124.216 132.064C125.072 131.211 127.639 130.784 129.35 130.358" stroke="#637FFD"/>
<path d="M128.067 63.3691C125.928 65.9292 115.232 64.6491 111.809 63.3691C116.171 61.9191 126.783 57.8223 128.067 63.3691Z" stroke="#637FFD"/>
<path d="M129.778 65.0758C129.127 65.9416 127.211 66.7825 124.201 68.9159C120.824 69 117.389 70.0511 113.805 69" stroke="#637FFD"/>
<path d="M111.381 60.8091C116.088 58.249 125.072 54.4089 129.35 59.529" stroke="#637FFD"/>
<path d="M76.299 94.9434C77.1546 103.05 80.1495 109.877 83.5721 112.864C86.9948 115.851 95.5515 119.264 101.969 121.397M124.644 127.798C131.49 129.504 138.763 130.358 142.186 129.078C145.608 127.798 149.031 122.251 148.175 117.557C147.32 112.864 146.892 111.157 148.175 106.037C149.459 100.917 153.309 90.2499 153.309 85.5565M152.881 78.3029C152.881 74.8895 151.598 72.3294 150.314 69.7693C150.921 68.4893 151.017 66.2192 150.293 65.0759C150.742 63.7958 151.17 62.5158 151.17 60.8091C151.087 59.895 150.921 59.1024 150.314 58.249C153.737 53.9822 153.379 49.9835 150.742 46.302C150.742 42.8886 144.753 24.5414 135.34 17.2878" stroke="#637FFD"/>
<path d="M145.18 55.2622C143.469 57.3956 142.186 58.249 142.186 60.3824C142.186 62.5157 143.041 65.0758 143.897 66.3559C144.753 67.6359 151.17 74.8894 152.026 76.5961C152.881 78.3029 155.021 80.8629 154.165 83.8497C153.48 86.2419 149.887 88.9698 146.892 89.3965" stroke="#637FFD"/>
<path d="M133.629 82.1429C132.345 85.9831 133.201 87.6898 134.912 88.5431C136.624 89.3965 137.052 88.9698 138.335 88.9698C140.474 88.1164 146.036 85.1297 146.036 87.2631" stroke="#637FFD"/>
<path d="M128.067 96.2234C126.783 97.5034 123.361 100.917 122.933 104.757" stroke="#637FFD"/>
<path d="M147.32 51.4221C147.32 50.1421 149.459 48.862 152.026 48.0087C152.881 48.4353 153.309 50.9954 152.881 51.8488C152.454 51.4221 150.314 52.7021 149.459 53.1288C148.603 53.5555 147.32 52.7021 147.32 51.4221Z" stroke="#637FFD"/>
<path d="M145.18 59.529C146.892 58.249 148.603 57.8223 150.314 58.249M153.309 60.8091C152.026 60.8091 149.031 60.3824 145.608 62.0891C146.036 63.3691 148.175 65.0759 150.314 65.0759" stroke="#637FFD"/>
<path d="M62.6084 121.824C48.4898 123.958 72.8764 153.825 82.7166 165.772C78.8661 163.212 64.7475 175.586 60.897 182.413C54.9073 169.612 45.0671 149.132 45.9228 144.865C46.7785 140.598 55.7629 126.944 56.6186 124.384C57.4743 121.824 61.7526 120.117 63.0361 120.117" stroke="#637FFD"/>
<path d="M134.912 169.185L137.907 173.452" stroke="#637FFD"/>
<path d="M102.435 197.348C101.727 198.15 100.288 198.208 99.1977 197.251C98.1074 196.293 97.9834 194.862 98.6915 194.06C99.3996 193.258 100.839 193.2 101.929 194.158C103.019 195.115 103.143 196.546 102.435 197.348Z" stroke="#637FFD"/>
<path d="M85.7033 176.882C84.801 177.459 83.4014 177.121 82.6168 175.902C81.8322 174.684 82.1059 173.274 83.0082 172.696C83.9104 172.118 85.3101 172.457 86.0947 173.675C86.8792 174.894 86.6055 176.304 85.7033 176.882Z" stroke="#637FFD"/>
<path d="M47.634 141.025L1 161.932" stroke="#637FFD"/>
<path d="M141.33 156.812C148.888 160.225 164.604 167.393 167 168.759" stroke="#637FFD"/>
<path d="M78.0103 177.719L91.2732 182.412" stroke="#637FFD"/>
<path d="M83.5721 126.518L92.1288 149.558" stroke="#637FFD"/>
</svg>
