<svg width="16" height="16" viewBox="0 0 16 16" xmlns="http://www.w3.org/2000/svg">
    <path
        d="M16 7.64285C16 11.2335 12.4188 14.1429 8.00001 14.1429C6.84064 14.1429 5.74064 13.9429 4.74689 13.5835C4.37501 13.8554 3.76876 14.2272 3.05001 14.5397C2.30001 14.8647 1.39689 15.1429 0.500011 15.1429C0.296886 15.1429 0.115636 15.021 0.0375112 14.8335C-0.0406138 14.646 0.00313619 14.4335 0.143761 14.2897L0.153136 14.2804C0.162511 14.271 0.175011 14.2585 0.193761 14.2366C0.228136 14.1991 0.281261 14.1397 0.346886 14.0585C0.475011 13.9022 0.646886 13.671 0.821886 13.3835C1.13439 12.8647 1.43126 12.1835 1.49064 11.4179C0.553136 10.3554 1.11946e-05 9.05223 1.11946e-05 7.64285C1.11946e-05 4.05223 3.58126 1.14285 8.00001 1.14285C12.4188 1.14285 16 4.05223 16 7.64285Z"/>
</svg>