<svg width="16" height="16" viewBox="0 0 16 16" xmlns="http://www.w3.org/2000/svg">
    <path
        d="M15.9944 7.12896C15.9944 7.62896 15.5778 8.02063 15.1056 8.02063H14.2167L14.2361 12.4706C14.2361 12.5456 14.2306 12.6206 14.2222 12.6956V13.1428C14.2222 13.7567 13.725 14.254 13.1111 14.254H12.6667C12.6361 14.254 12.6056 14.254 12.575 14.2512C12.5361 14.254 12.4972 14.254 12.4583 14.254H11.5556H10.8889C10.275 14.254 9.77778 13.7567 9.77778 13.1428V12.4762V10.6984C9.77778 10.2067 9.38056 9.80952 8.88889 9.80952H7.11111C6.61944 9.80952 6.22222 10.2067 6.22222 10.6984V12.4762V13.1428C6.22222 13.7567 5.725 14.254 5.11111 14.254H4.44444H3.55833C3.51667 14.254 3.475 14.2512 3.43333 14.2484C3.4 14.2512 3.36667 14.254 3.33333 14.254H2.88889C2.275 14.254 1.77778 13.7567 1.77778 13.1428V10.0317C1.77778 10.0067 1.77778 9.97896 1.78056 9.95396V8.02063H0.888889C0.388889 8.02063 0 7.63174 0 7.12896C0 6.87896 0.0833333 6.65674 0.277778 6.46229L7.4 0.253961C7.59444 0.0595161 7.81667 0.0317383 8.01111 0.0317383C8.20556 0.0317383 8.42778 0.0872938 8.59444 0.226183L15.6889 6.46229C15.9111 6.65674 16.0222 6.87896 15.9944 7.12896Z"/>
</svg>