<svg width="16" height="16" viewBox="0 0 16 16" xmlns="http://www.w3.org/2000/svg">
    <path
        d="M3.25 4.3125C3.00937 4.3125 2.8125 4.50937 2.8125 4.75V5.3543L7.5293 9.22617C8.09531 9.69102 8.90742 9.69102 9.47344 9.22617L14.1875 5.3543V4.75C14.1875 4.50937 13.9906 4.3125 13.75 4.3125H3.25ZM2.8125 7.05234V11.75C2.8125 11.9906 3.00937 12.1875 3.25 12.1875H13.75C13.9906 12.1875 14.1875 11.9906 14.1875 11.75V7.05234L10.3047 10.2406C9.25469 11.102 7.74258 11.102 6.69531 10.2406L2.8125 7.05234ZM1.5 4.75C1.5 3.78477 2.28477 3 3.25 3H13.75C14.7152 3 15.5 3.78477 15.5 4.75V11.75C15.5 12.7152 14.7152 13.5 13.75 13.5H3.25C2.28477 13.5 1.5 12.7152 1.5 11.75V4.75Z"/>
</svg>