<?xml version="1.0" encoding="UTF-8"?>
<svg id="Calque_1" xmlns="http://www.w3.org/2000/svg" viewBox="0 0 985.99 985.99">
    <defs>
        <style>
            .cls-1 {
                fill: #0d1226;
                stroke: #637ffd;
                stroke-miterlimit: 10;
            }
        </style>
    </defs>
    <rect class="cls-1" x="-103.87" y="-49.97" width="1152.03" height="1080.76" />
    <g>
        <g>
            <polygon class="cls-1" points="886.16 209.84 886.16 168.27 994.16 105.92 994.16 147.49 886.16 209.84" />
            <polygon class="cls-1" points="886.16 209.84 850.16 189.06 850.16 147.48 886.16 168.27 886.16 209.84" />
            <polygon class="cls-1" points="958.16 85.14 850.16 147.48 886.16 168.27 994.16 105.92 958.16 85.14" />
        </g>
        <g>
            <polygon class="cls-1" points="814.16 43.56 814.16 1.99 706.16 -60.37 706.16 -18.8 814.16 43.56" />
            <polygon class="cls-1" points="814.16 43.56 850.16 22.77 850.16 -18.81 814.16 1.99 814.16 43.56" />
            <polygon class="cls-1" points="742.16 -81.15 850.16 -18.81 814.16 1.99 706.16 -60.37 742.16 -81.15" />
        </g>
        <g>
            <polygon class="cls-1" points="958.16 43.56 958.16 1.99 850.16 -60.37 850.16 -18.8 958.16 43.56" />
            <polygon class="cls-1" points="958.16 43.56 994.16 22.77 994.16 -18.81 958.16 1.99 958.16 43.56" />
            <polygon class="cls-1" points="886.16 -81.15 994.16 -18.81 958.16 1.99 850.16 -60.37 886.16 -81.15" />
        </g>
        <g>
            <polygon class="cls-1" points="1066.16 189.05 1066.16 147.48 958.16 85.13 958.16 126.7 1066.16 189.05" />
            <polygon class="cls-1" points="994.16 64.34 1102.16 126.69 1066.16 147.48 958.16 85.13 994.16 64.34" />
        </g>
        <g>
            <polygon class="cls-1" points="1066.16 313.76 1066.16 272.19 958.16 209.83 958.16 251.4 1066.16 313.76" />
            <polygon class="cls-1" points="994.16 189.05 1102.16 251.39 1066.16 272.19 958.16 209.83 994.16 189.05" />
        </g>
        <g>
            <polygon class="cls-1" points="958.16 376.13 958.16 334.56 850.16 272.21 850.16 313.78 958.16 376.13" />
            <polygon class="cls-1" points="958.16 376.13 994.16 355.35 994.16 313.77 958.16 334.56 958.16 376.13" />
            <polygon class="cls-1" points="886.16 251.42 994.16 313.77 958.16 334.56 850.16 272.21 886.16 251.42" />
        </g>
        <g>
            <polygon class="cls-1" points="598.16 209.84 598.16 168.27 706.16 105.92 706.16 147.49 598.16 209.84" />
            <polygon class="cls-1" points="598.16 209.84 562.16 189.06 562.16 147.48 598.16 168.27 598.16 209.84" />
            <polygon class="cls-1" points="670.16 85.14 562.16 147.48 598.16 168.27 706.16 105.92 670.16 85.14" />
        </g>
        <g>
            <polygon class="cls-1" points="346.16 188.53 346.16 146.96 454.16 84.61 454.16 126.17 346.16 188.53" />
            <polygon class="cls-1" points="346.16 188.53 310.16 167.74 310.16 126.17 346.16 146.96 346.16 188.53" />
            <polygon class="cls-1" points="418.16 63.82 310.16 126.17 346.16 146.96 454.16 84.61 418.16 63.82" />
        </g>
        <g>
            <polygon class="cls-1" points="562.16 147.48 562.16 105.91 670.16 43.56 670.16 85.13 562.16 147.48" />
            <polygon class="cls-1" points="562.16 147.48 526.16 126.7 526.16 85.12 562.16 105.91 562.16 147.48" />
            <polygon class="cls-1" points="634.16 22.77 526.16 85.12 562.16 105.91 670.16 43.56 634.16 22.77" />
        </g>
        <g>
            <polygon class="cls-1" points="670.16 292.99 670.16 251.42 778.16 189.07 778.16 230.64 670.16 292.99" />
            <polygon class="cls-1" points="670.16 292.99 634.16 272.21 634.16 230.63 670.16 251.42 670.16 292.99" />
            <polygon class="cls-1" points="742.16 168.28 634.16 230.63 670.16 251.42 778.16 189.07 742.16 168.28" />
        </g>
        <g>
            <polygon class="cls-1" points="526.16 376.13 526.16 334.56 634.16 272.21 634.16 313.78 526.16 376.13" />
            <polygon class="cls-1" points="526.16 376.13 490.16 355.35 490.16 313.77 526.16 334.56 526.16 376.13" />
            <polygon class="cls-1" points="598.16 251.42 490.16 313.77 526.16 334.56 634.16 272.21 598.16 251.42" />
        </g>
        <g>
            <polygon class="cls-1" points="526.16 292.98 526.16 251.41 634.16 189.06 634.16 230.63 526.16 292.98" />
            <polygon class="cls-1" points="526.16 292.98 490.16 272.2 490.16 230.62 526.16 251.41 526.16 292.98" />
            <polygon class="cls-1" points="598.16 168.27 490.16 230.62 526.16 251.41 634.16 189.06 598.16 168.27" />
        </g>
        <g>
            <polygon class="cls-1" points="490.16 64.34 490.16 22.77 598.16 -39.58 598.16 1.99 490.16 64.34" />
            <polygon class="cls-1" points="490.16 64.34 454.16 43.56 454.16 1.98 490.16 22.77 490.16 64.34" />
            <polygon class="cls-1" points="562.16 -60.37 454.16 1.98 490.16 22.77 598.16 -39.58 562.16 -60.37" />
        </g>
        <g>
            <polygon class="cls-1" points="418.16 64.33 418.16 22.76 526.16 -39.59 526.16 1.98 418.16 64.33" />
            <polygon class="cls-1" points="418.16 64.33 382.16 43.55 382.16 1.97 418.16 22.76 418.16 64.33" />
            <polygon class="cls-1" points="490.16 -60.38 382.16 1.97 418.16 22.76 526.16 -39.59 490.16 -60.38" />
        </g>
        <g>
            <polygon class="cls-1" points="382.16 1.99 382.16 -39.58 490.16 -101.93 490.16 -60.37 382.16 1.99" />
            <polygon class="cls-1" points="382.16 1.99 346.16 -18.8 346.16 -60.38 382.16 -39.58 382.16 1.99" />
        </g>
        <g>
            <polygon class="cls-1" points="850.16 147.48 850.16 105.91 958.16 43.56 958.16 85.13 850.16 147.48" />
            <polygon class="cls-1" points="850.16 147.48 814.16 126.7 814.16 85.12 850.16 105.91 850.16 147.48" />
            <polygon class="cls-1" points="922.16 22.77 814.16 85.12 850.16 105.91 958.16 43.56 922.16 22.77" />
        </g>
        <g>
            <polygon class="cls-1" points="706.16 189.04 706.16 147.47 814.16 85.12 814.16 126.69 706.16 189.04" />
            <polygon class="cls-1" points="706.16 189.04 670.16 168.26 670.16 126.68 706.16 147.47 706.16 189.04" />
            <polygon class="cls-1" points="778.16 64.33 670.16 126.68 706.16 147.47 814.16 85.12 778.16 64.33" />
        </g>
        <g>
            <polygon class="cls-1" points="742.16 334.54 742.16 292.97 850.16 230.62 850.16 272.19 742.16 334.54" />
            <polygon class="cls-1" points="742.16 334.54 706.16 313.76 706.16 272.18 742.16 292.97 742.16 334.54" />
            <polygon class="cls-1" points="814.16 209.83 706.16 272.18 742.16 292.97 850.16 230.62 814.16 209.83" />
        </g>
        <g>
            <polygon class="cls-1" points="814.16 459.25 814.16 417.68 922.16 355.33 922.16 396.9 814.16 459.25" />
            <polygon class="cls-1" points="814.16 459.25 778.16 438.47 778.16 396.89 814.16 417.68 814.16 459.25" />
            <polygon class="cls-1" points="886.16 334.54 778.16 396.89 814.16 417.68 922.16 355.33 886.16 334.54" />
        </g>
        <g>
            <polygon class="cls-1" points="922.16 480.05 922.16 438.48 1030.16 376.13 1030.16 417.7 922.16 480.05" />
            <polygon class="cls-1" points="922.16 480.05 886.16 459.27 886.16 417.69 922.16 438.48 922.16 480.05" />
            <polygon class="cls-1" points="994.16 355.35 886.16 417.69 922.16 438.48 1030.16 376.13 994.16 355.35" />
        </g>
        <g>
            <polygon class="cls-1" points="814.16 583.96 814.16 542.39 922.16 480.03 922.16 521.6 814.16 583.96" />
            <polygon class="cls-1" points="814.16 583.96 778.16 563.17 778.16 521.59 814.16 542.39 814.16 583.96" />
            <polygon class="cls-1" points="886.16 459.25 778.16 521.59 814.16 542.39 922.16 480.03 886.16 459.25" />
        </g>
        <g>
            <polygon class="cls-1" points="958.16 209.83 958.16 168.27 1066.16 105.91 1066.16 147.48 958.16 209.83" />
            <polygon class="cls-1" points="958.16 209.83 922.16 189.05 922.16 147.47 958.16 168.27 958.16 209.83" />
            <polygon class="cls-1" points="1030.16 85.13 922.16 147.47 958.16 168.27 1066.16 105.91 1030.16 85.13" />
        </g>
        <g>
            <polygon class="cls-1" points="850.16 147.48 850.16 105.91 742.16 43.56 742.16 85.13 850.16 147.48" />
            <polygon class="cls-1" points="850.16 147.48 886.16 126.7 886.16 85.12 850.16 105.91 850.16 147.48" />
            <polygon class="cls-1" points="778.16 22.77 886.16 85.12 850.16 105.91 742.16 43.56 778.16 22.77" />
        </g>
        <g>
            <polygon class="cls-1" points="706.16 64.34 706.16 22.77 598.16 -39.58 598.16 1.99 706.16 64.34" />
            <polygon class="cls-1" points="706.16 64.34 742.16 43.56 742.16 1.98 706.16 22.77 706.16 64.34" />
            <polygon class="cls-1" points="634.16 -60.37 742.16 1.98 706.16 22.77 598.16 -39.58 634.16 -60.37" />
        </g>
        <g>
            <polygon class="cls-1" points="922.16 272.19 922.16 230.62 814.16 168.27 814.16 209.83 922.16 272.19" />
            <polygon class="cls-1" points="922.16 272.19 958.16 251.4 958.16 209.82 922.16 230.62 922.16 272.19" />
            <polygon class="cls-1" points="850.16 147.48 958.16 209.82 922.16 230.62 814.16 168.27 850.16 147.48" />
        </g>
        <g>
            <polygon class="cls-1" points="778.16 230.63 778.16 189.06 670.16 126.71 670.16 168.27 778.16 230.63" />
            <polygon class="cls-1" points="778.16 230.63 814.16 209.84 814.16 168.27 778.16 189.06 778.16 230.63" />
            <polygon class="cls-1" points="706.16 105.92 814.16 168.27 778.16 189.06 670.16 126.71 706.16 105.92" />
        </g>
        <g>
            <polygon class="cls-1" points="310.17 417.7 310.17 376.13 418.17 313.78 418.17 355.35 310.17 417.7" />
            <polygon class="cls-1" points="310.17 417.7 274.17 396.92 274.17 355.34 310.17 376.13 310.17 417.7" />
            <polygon class="cls-1" points="382.17 292.99 274.17 355.34 310.17 376.13 418.17 313.78 382.17 292.99" />
        </g>
        <g>
            <polygon class="cls-1" points="526.17 417.71 526.17 376.14 418.17 313.79 418.17 355.36 526.17 417.71" />
            <polygon class="cls-1" points="526.17 417.71 562.17 396.93 562.17 355.35 526.17 376.14 526.17 417.71" />
            <polygon class="cls-1" points="454.17 293 562.17 355.35 526.17 376.14 418.17 313.79 454.17 293" />
        </g>
        <g>
            <polygon class="cls-1" points="418.17 313.78 418.17 272.21 310.17 209.85 310.17 251.42 418.17 313.78" />
            <polygon class="cls-1" points="418.17 313.78 454.17 292.99 454.17 251.41 418.17 272.21 418.17 313.78" />
            <polygon class="cls-1" points="346.17 189.07 454.17 251.41 418.17 272.21 310.17 209.85 346.17 189.07" />
        </g>
        <g>
            <polygon class="cls-1" points="526.17 500.81 526.17 459.24 418.17 396.88 418.17 438.45 526.17 500.81" />
            <polygon class="cls-1" points="526.17 500.81 562.17 480.02 562.17 438.44 526.17 459.24 526.17 500.81" />
            <polygon class="cls-1" points="454.17 376.1 562.17 438.44 526.17 459.24 418.17 396.88 454.17 376.1" />
        </g>
        <g>
            <polygon class="cls-1" points="418.21 521.57 418.21 480 310.21 417.64 310.21 459.21 418.21 521.57" />
            <polygon class="cls-1" points="418.21 521.57 454.21 500.78 454.21 459.2 418.21 480 418.21 521.57" />
            <polygon class="cls-1" points="346.21 396.86 454.21 459.2 418.21 480 310.21 417.64 346.21 396.86" />
        </g>
        <g>
            <polygon class="cls-1" points="670.16 126.71 670.16 85.14 562.16 22.78 562.16 64.35 670.16 126.71" />
            <polygon class="cls-1" points="670.16 126.71 706.16 105.92 706.16 64.34 670.16 85.14 670.16 126.71" />
            <polygon class="cls-1" points="598.16 2 706.16 64.34 670.16 85.14 562.16 22.78 598.16 2" />
        </g>
        <g>
            <polygon class="cls-1" points="526.16 168.27 526.16 126.7 418.16 64.34 418.16 105.91 526.16 168.27" />
            <polygon class="cls-1" points="526.16 168.27 562.16 147.48 562.16 105.9 526.16 126.7 526.16 168.27" />
            <polygon class="cls-1" points="454.16 43.56 562.16 105.9 526.16 126.7 418.16 64.34 454.16 43.56" />
        </g>
        <g>
            <polygon class="cls-1" points="742.16 542.43 742.16 500.86 850.16 438.5 850.16 480.07 742.16 542.43" />
            <polygon class="cls-1" points="742.16 542.43 706.16 521.64 706.16 480.06 742.16 500.86 742.16 542.43" />
            <polygon class="cls-1" points="814.16 417.72 706.16 480.06 742.16 500.86 850.16 438.5 814.16 417.72" />
        </g>
        <g>
            <polygon class="cls-1" points="706.16 480.06 706.16 438.49 814.16 376.14 814.16 417.71 706.16 480.06" />
            <polygon class="cls-1" points="706.16 480.06 670.16 459.28 670.16 417.7 706.16 438.49 706.16 480.06" />
            <polygon class="cls-1" points="778.16 355.36 670.16 417.7 706.16 438.49 814.16 376.14 778.16 355.36" />
        </g>
        <g>
            <polygon class="cls-1" points="562.16 396.92 562.16 355.35 670.16 292.99 670.16 334.56 562.16 396.92" />
            <polygon class="cls-1" points="562.16 396.92 526.16 376.13 526.16 334.55 562.16 355.35 562.16 396.92" />
            <polygon class="cls-1" points="634.16 272.21 526.16 334.55 562.16 355.35 670.16 292.99 634.16 272.21" />
        </g>
        <g>
            <polygon class="cls-1" points="670.16 500.85 670.16 459.28 562.16 396.93 562.16 438.49 670.16 500.85" />
            <polygon class="cls-1" points="670.16 500.85 706.16 480.06 706.16 438.48 670.16 459.28 670.16 500.85" />
            <polygon class="cls-1" points="598.16 376.14 706.16 438.48 670.16 459.28 562.16 396.93 598.16 376.14" />
        </g>
        <g>
            <polygon class="cls-1" points="490.16 272.18 490.16 230.61 382.16 168.26 382.16 209.82 490.16 272.18" />
            <polygon class="cls-1" points="490.16 272.18 526.16 251.39 526.16 209.82 490.16 230.61 490.16 272.18" />
            <polygon class="cls-1" points="418.16 147.47 526.16 209.82 490.16 230.61 382.16 168.26 418.16 147.47" />
        </g>
        <g>
            <polygon class="cls-1" points="742.16 417.7 742.16 376.13 634.16 313.78 634.16 355.35 742.16 417.7" />
            <polygon class="cls-1" points="742.16 417.7 778.16 396.92 778.16 355.34 742.16 376.13 742.16 417.7" />
            <polygon class="cls-1" points="670.16 292.99 778.16 355.34 742.16 376.13 634.16 313.78 670.16 292.99" />
        </g>
        <g>
            <polygon class="cls-1" points="886.16 417.69 886.16 376.12 778.16 313.77 778.16 355.34 886.16 417.69" />
            <polygon class="cls-1" points="886.16 417.69 922.16 396.91 922.16 355.33 886.16 376.12 886.16 417.69" />
            <polygon class="cls-1" points="814.16 292.98 922.16 355.33 886.16 376.12 778.16 313.77 814.16 292.98" />
        </g>
        <g>
            <polygon class="cls-1" points="1030.16 583.96 1030.16 542.39 922.16 480.03 922.16 521.6 1030.16 583.96" />
            <polygon class="cls-1" points="958.16 459.25 1066.16 521.59 1030.16 542.39 922.16 480.03 958.16 459.25" />
        </g>
        <g>
            <polygon class="cls-1" points="922.16 687.89 922.16 646.32 1030.16 583.97 1030.16 625.54 922.16 687.89" />
            <polygon class="cls-1" points="922.16 687.89 886.16 667.11 886.16 625.53 922.16 646.32 922.16 687.89" />
            <polygon class="cls-1" points="994.16 563.18 886.16 625.53 922.16 646.32 1030.16 583.97 994.16 563.18" />
        </g>
        <g>
            <polygon class="cls-1" points="778.16 687.88 778.16 646.31 886.16 583.96 886.16 625.53 778.16 687.88" />
            <polygon class="cls-1" points="778.16 687.88 742.16 667.1 742.16 625.52 778.16 646.31 778.16 687.88" />
            <polygon class="cls-1" points="850.16 563.17 742.16 625.52 778.16 646.31 886.16 583.96 850.16 563.17" />
        </g>
        <g>
            <polygon class="cls-1" points="994.16 646.31 994.16 604.74 886.16 542.39 886.16 583.96 994.16 646.31" />
            <polygon class="cls-1" points="922.16 521.6 1030.16 583.95 994.16 604.74 886.16 542.39 922.16 521.6" />
        </g>
        <g>
            <g>
                <polygon class="cls-1" points="886.21 833.34 886.21 791.77 994.21 729.42 994.21 770.99 886.21 833.34" />
                <polygon class="cls-1" points="886.21 833.34 850.21 812.56 850.21 770.98 886.21 791.77 886.21 833.34" />
                <polygon class="cls-1" points="958.21 708.64 850.21 770.98 886.21 791.77 994.21 729.42 958.21 708.64" />
            </g>
            <g>
                <polygon class="cls-1" points="814.21 667.06 814.21 625.49 706.21 563.13 706.21 604.7 814.21 667.06" />
                <polygon class="cls-1" points="814.21 667.06 850.21 646.27 850.21 604.69 814.21 625.49 814.21 667.06" />
                <polygon class="cls-1" points="742.21 542.35 850.21 604.69 814.21 625.49 706.21 563.13 742.21 542.35" />
            </g>
            <g>
                <polygon class="cls-1" points="670.21 583.91 670.21 542.34 562.21 479.99 562.21 521.56 670.21 583.91" />
                <polygon class="cls-1" points="670.21 583.91 706.21 563.12 706.21 521.55 670.21 542.34 670.21 583.91" />
                <polygon class="cls-1" points="598.21 459.2 706.21 521.55 670.21 542.34 562.21 479.99 598.21 459.2" />
            </g>
            <g>
                <polygon class="cls-1" points="958.21 667.06 958.21 625.49 850.21 563.13 850.21 604.7 958.21 667.06" />
                <polygon class="cls-1" points="958.21 667.06 994.21 646.27 994.21 604.69 958.21 625.49 958.21 667.06" />
                <polygon class="cls-1" points="886.21 542.35 994.21 604.69 958.21 625.49 850.21 563.13 886.21 542.35" />
            </g>
            <g>
                <polygon class="cls-1" points="994.21 563.13 994.21 521.57 886.21 459.21 886.21 500.78 994.21 563.13" />
                <polygon class="cls-1"
                    points="922.21 438.43 1030.21 500.77 994.21 521.57 886.21 459.21 922.21 438.43" />
            </g>
            <g>
                <polygon class="cls-1"
                    points="1066.21 812.55 1066.21 770.98 958.21 708.63 958.21 750.2 1066.21 812.55" />
                <polygon class="cls-1"
                    points="994.21 687.84 1102.21 750.19 1066.21 770.98 958.21 708.63 994.21 687.84" />
            </g>
            <g>
                <polygon class="cls-1"
                    points="1066.21 937.26 1066.21 895.69 958.21 833.33 958.21 874.9 1066.21 937.26" />
                <polygon class="cls-1"
                    points="994.21 812.55 1102.21 874.89 1066.21 895.69 958.21 833.33 994.21 812.55" />
            </g>
            <g>
                <polygon class="cls-1" points="958.21 999.63 958.21 958.06 850.21 895.71 850.21 937.28 958.21 999.63" />
                <polygon class="cls-1" points="958.21 999.63 994.21 978.85 994.21 937.27 958.21 958.06 958.21 999.63" />
                <polygon class="cls-1" points="886.21 874.92 994.21 937.27 958.21 958.06 850.21 895.71 886.21 874.92" />
            </g>
            <g>
                <polygon class="cls-1" points="778.21 604.7 778.21 563.13 886.21 500.78 886.21 542.35 778.21 604.7" />
                <polygon class="cls-1" points="778.21 604.7 742.21 583.92 742.21 542.34 778.21 563.13 778.21 604.7" />
                <polygon class="cls-1" points="850.21 480 742.21 542.34 778.21 563.13 886.21 500.78 850.21 480" />
            </g>
            <g>
                <polygon class="cls-1" points="598.21 833.34 598.21 791.77 706.21 729.42 706.21 770.99 598.21 833.34" />
                <polygon class="cls-1" points="598.21 833.34 562.21 812.56 562.21 770.98 598.21 791.77 598.21 833.34" />
                <polygon class="cls-1" points="670.21 708.64 562.21 770.98 598.21 791.77 706.21 729.42 670.21 708.64" />
            </g>
            <g>
                <polygon class="cls-1" points="346.21 812.03 346.21 770.46 454.21 708.11 454.21 749.67 346.21 812.03" />
                <polygon class="cls-1" points="346.21 812.03 310.21 791.24 310.21 749.66 346.21 770.46 346.21 812.03" />
                <polygon class="cls-1" points="418.21 687.32 310.21 749.66 346.21 770.46 454.21 708.11 418.21 687.32" />
            </g>
            <g>
                <polygon class="cls-1" points="562.21 770.98 562.21 729.41 670.21 667.06 670.21 708.63 562.21 770.98" />
                <polygon class="cls-1" points="562.21 770.98 526.21 750.2 526.21 708.62 562.21 729.41 562.21 770.98" />
                <polygon class="cls-1" points="634.21 646.27 526.21 708.62 562.21 729.41 670.21 667.06 634.21 646.27" />
            </g>
            <g>
                <polygon class="cls-1" points="670.21 916.49 670.21 874.92 778.21 812.57 778.21 854.14 670.21 916.49" />
                <polygon class="cls-1" points="670.21 916.49 634.21 895.71 634.21 854.13 670.21 874.92 670.21 916.49" />
                <polygon class="cls-1" points="742.21 791.78 634.21 854.13 670.21 874.92 778.21 812.57 742.21 791.78" />
            </g>
            <g>
                <polygon class="cls-1" points="526.21 999.63 526.21 958.06 634.21 895.71 634.21 937.28 526.21 999.63" />
                <polygon class="cls-1" points="526.21 999.63 490.21 978.85 490.21 937.27 526.21 958.06 526.21 999.63" />
                <polygon class="cls-1" points="598.21 874.92 490.21 937.27 526.21 958.06 634.21 895.71 598.21 874.92" />
            </g>
            <g>
                <polygon class="cls-1" points="526.21 916.48 526.21 874.91 634.21 812.56 634.21 854.13 526.21 916.48" />
                <polygon class="cls-1" points="526.21 916.48 490.21 895.7 490.21 854.12 526.21 874.91 526.21 916.48" />
                <polygon class="cls-1" points="598.21 791.77 490.21 854.12 526.21 874.91 634.21 812.56 598.21 791.77" />
            </g>
            <g>
                <polygon class="cls-1" points="490.21 687.84 490.21 646.27 598.21 583.92 598.21 625.49 490.21 687.84" />
                <polygon class="cls-1" points="490.21 687.84 454.21 667.06 454.21 625.48 490.21 646.27 490.21 687.84" />
                <polygon class="cls-1" points="562.21 563.13 454.21 625.48 490.21 646.27 598.21 583.92 562.21 563.13" />
            </g>
            <g>
                <polygon class="cls-1" points="418.21 687.83 418.21 646.26 526.21 583.91 526.21 625.48 418.21 687.83" />
                <polygon class="cls-1" points="418.21 687.83 382.21 667.05 382.21 625.47 418.21 646.26 418.21 687.83" />
                <polygon class="cls-1" points="490.21 563.12 382.21 625.47 418.21 646.26 526.21 583.91 490.21 563.12" />
            </g>
            <g>
                <polygon class="cls-1" points="382.21 625.49 382.21 583.92 490.21 521.57 490.21 563.13 382.21 625.49" />
                <polygon class="cls-1" points="382.21 625.49 346.21 604.7 346.21 563.12 382.21 583.92 382.21 625.49" />
                <polygon class="cls-1" points="454.21 500.78 346.21 563.12 382.21 583.92 490.21 521.57 454.21 500.78" />
            </g>
            <g>
                <polygon class="cls-1" points="526.21 583.92 526.21 542.35 634.21 480 634.21 521.57 526.21 583.92" />
                <polygon class="cls-1" points="526.21 583.92 490.21 563.13 490.21 521.56 526.21 542.35 526.21 583.92" />
                <polygon class="cls-1" points="598.21 459.21 490.21 521.56 526.21 542.35 634.21 480 598.21 459.21" />
            </g>
            <g>
                <polygon class="cls-1" points="850.21 770.98 850.21 729.41 958.21 667.06 958.21 708.63 850.21 770.98" />
                <polygon class="cls-1" points="850.21 770.98 814.21 750.2 814.21 708.62 850.21 729.41 850.21 770.98" />
                <polygon class="cls-1" points="922.21 646.27 814.21 708.62 850.21 729.41 958.21 667.06 922.21 646.27" />
            </g>
            <g>
                <polygon class="cls-1" points="706.21 812.54 706.21 770.97 814.21 708.62 814.21 750.19 706.21 812.54" />
                <polygon class="cls-1" points="706.21 812.54 670.21 791.76 670.21 750.18 706.21 770.97 706.21 812.54" />
                <polygon class="cls-1" points="778.21 687.83 670.21 750.18 706.21 770.97 814.21 708.62 778.21 687.83" />
            </g>
            <g>
                <polygon class="cls-1" points="742.21 958.04 742.21 916.47 850.21 854.12 850.21 895.69 742.21 958.04" />
                <polygon class="cls-1" points="742.21 958.04 706.21 937.26 706.21 895.68 742.21 916.47 742.21 958.04" />
                <polygon class="cls-1" points="814.21 833.33 706.21 895.68 742.21 916.47 850.21 854.12 814.21 833.33" />
            </g>
            <g>
                <polygon class="cls-1"
                    points="814.21 1082.75 814.21 1041.18 922.21 978.83 922.21 1020.4 814.21 1082.75" />
                <polygon class="cls-1"
                    points="886.21 958.04 778.21 1020.39 814.21 1041.18 922.21 978.83 886.21 958.04" />
            </g>
            <polygon class="cls-1" points="994.21 978.85 886.21 1041.19 922.21 1061.98 1030.21 999.63 994.21 978.85" />
            <g>
                <polygon class="cls-1"
                    points="958.21 833.33 958.21 791.77 1066.21 729.41 1066.21 770.98 958.21 833.33" />
                <polygon class="cls-1" points="958.21 833.33 922.21 812.55 922.21 770.97 958.21 791.77 958.21 833.33" />
                <polygon class="cls-1"
                    points="1030.21 708.63 922.21 770.97 958.21 791.77 1066.21 729.41 1030.21 708.63" />
            </g>
            <g>
                <polygon class="cls-1" points="850.21 770.98 850.21 729.41 742.21 667.06 742.21 708.63 850.21 770.98" />
                <polygon class="cls-1" points="850.21 770.98 886.21 750.2 886.21 708.62 850.21 729.41 850.21 770.98" />
                <polygon class="cls-1" points="778.21 646.27 886.21 708.62 850.21 729.41 742.21 667.06 778.21 646.27" />
            </g>
            <g>
                <polygon class="cls-1" points="706.21 687.84 706.21 646.27 598.21 583.92 598.21 625.49 706.21 687.84" />
                <polygon class="cls-1" points="706.21 687.84 742.21 667.06 742.21 625.48 706.21 646.27 706.21 687.84" />
                <polygon class="cls-1" points="634.21 563.13 742.21 625.48 706.21 646.27 598.21 583.92 634.21 563.13" />
            </g>
            <g>
                <polygon class="cls-1" points="922.21 895.69 922.21 854.12 814.21 791.77 814.21 833.33 922.21 895.69" />
                <polygon class="cls-1" points="922.21 895.69 958.21 874.9 958.21 833.32 922.21 854.12 922.21 895.69" />
                <polygon class="cls-1" points="850.21 770.98 958.21 833.32 922.21 854.12 814.21 791.77 850.21 770.98" />
            </g>
            <g>
                <polygon class="cls-1" points="778.21 854.13 778.21 812.56 670.21 750.21 670.21 791.77 778.21 854.13" />
                <polygon class="cls-1" points="778.21 854.13 814.21 833.34 814.21 791.77 778.21 812.56 778.21 854.13" />
                <polygon class="cls-1" points="706.21 729.42 814.21 791.77 778.21 812.56 670.21 750.21 706.21 729.42" />
            </g>
            <g>
                <polygon class="cls-1"
                    points="310.21 1040.65 310.21 999.09 418.21 936.73 418.21 978.3 310.21 1040.65" />
                <polygon class="cls-1"
                    points="310.21 1040.65 274.21 1019.87 274.21 978.29 310.21 999.09 310.21 1040.65" />
                <polygon class="cls-1" points="382.21 915.95 274.21 978.29 310.21 999.09 418.21 936.73 382.21 915.95" />
            </g>
            <g>
                <polygon class="cls-1"
                    points="598.21 1040.65 598.21 999.09 490.21 936.73 490.21 978.3 598.21 1040.65" />
                <polygon class="cls-1"
                    points="598.21 1040.65 634.21 1019.87 634.21 978.29 598.21 999.09 598.21 1040.65" />
                <polygon class="cls-1" points="526.21 915.95 634.21 978.29 598.21 999.09 490.21 936.73 526.21 915.95" />
            </g>
            <g>
                <polygon class="cls-1" points="454.21 957.52 454.21 915.95 346.21 853.59 346.21 895.16 454.21 957.52" />
                <polygon class="cls-1" points="454.21 957.52 490.21 936.73 490.21 895.15 454.21 915.95 454.21 957.52" />
                <polygon class="cls-1" points="382.21 832.81 490.21 895.15 454.21 915.95 346.21 853.59 382.21 832.81" />
            </g>
            <g>
                <polygon class="cls-1" points="670.21 750.21 670.21 708.64 562.21 646.28 562.21 687.85 670.21 750.21" />
                <polygon class="cls-1" points="670.21 750.21 706.21 729.42 706.21 687.84 670.21 708.64 670.21 750.21" />
                <polygon class="cls-1" points="598.21 625.5 706.21 687.84 670.21 708.64 562.21 646.28 598.21 625.5" />
            </g>
            <g>
                <polygon class="cls-1" points="526.21 791.77 526.21 750.2 418.21 687.84 418.21 729.41 526.21 791.77" />
                <polygon class="cls-1" points="526.21 791.77 562.21 770.98 562.21 729.4 526.21 750.2 526.21 791.77" />
                <polygon class="cls-1" points="454.21 667.06 562.21 729.4 526.21 750.2 418.21 687.84 454.21 667.06" />
            </g>
            <polygon class="cls-1" points="778.21 978.86 670.21 1041.2 706.21 1061.99 814.21 999.64 778.21 978.86" />
            <g>
                <polygon class="cls-1"
                    points="562.21 1020.42 562.21 978.85 670.21 916.49 670.21 958.06 562.21 1020.42" />
                <polygon class="cls-1"
                    points="562.21 1020.42 526.21 999.63 526.21 958.05 562.21 978.85 562.21 1020.42" />
                <polygon class="cls-1" points="634.21 895.71 526.21 958.05 562.21 978.85 670.21 916.49 634.21 895.71" />
            </g>
            <g>
                <polygon class="cls-1" points="490.21 853.6 490.21 812.03 382.21 749.67 382.21 791.24 490.21 853.6" />
                <polygon class="cls-1" points="490.21 853.6 526.21 832.81 526.21 791.23 490.21 812.03 490.21 853.6" />
                <polygon class="cls-1" points="418.21 728.89 526.21 791.23 490.21 812.03 382.21 749.67 418.21 728.89" />
            </g>
            <g>
                <polygon class="cls-1" points="742.21 1041.2 742.21 999.63 634.21 937.28 634.21 978.85 742.21 1041.2" />
                <polygon class="cls-1"
                    points="742.21 1041.2 778.21 1020.42 778.21 978.84 742.21 999.63 742.21 1041.2" />
                <polygon class="cls-1" points="670.21 916.49 778.21 978.84 742.21 999.63 634.21 937.28 670.21 916.49" />
            </g>
            <g>
                <polygon class="cls-1"
                    points="886.21 1041.19 886.21 999.62 778.21 937.27 778.21 978.84 886.21 1041.19" />
                <polygon class="cls-1"
                    points="886.21 1041.19 922.21 1020.41 922.21 978.83 886.21 999.62 886.21 1041.19" />
                <polygon class="cls-1" points="814.21 916.48 922.21 978.83 886.21 999.62 778.21 937.27 814.21 916.48" />
            </g>
        </g>
    </g>
    <g>
        <g>
            <polygon class="cls-1" points="238.09 209.84 238.09 168.27 346.09 105.92 346.09 147.49 238.09 209.84" />
            <polygon class="cls-1" points="238.09 209.84 202.09 189.06 202.09 147.48 238.09 168.27 238.09 209.84" />
            <polygon class="cls-1" points="310.09 85.14 202.09 147.48 238.09 168.27 346.09 105.92 310.09 85.14" />
        </g>
        <g>
            <polygon class="cls-1" points="166.09 43.56 166.09 1.99 58.09 -60.37 58.09 -18.8 166.09 43.56" />
            <polygon class="cls-1" points="166.09 43.56 202.09 22.77 202.09 -18.81 166.09 1.99 166.09 43.56" />
            <polygon class="cls-1" points="94.09 -81.15 202.09 -18.81 166.09 1.99 58.09 -60.37 94.09 -81.15" />
        </g>
        <g>
            <polygon class="cls-1" points="310.09 43.56 310.09 1.99 202.09 -60.37 202.09 -18.8 310.09 43.56" />
            <polygon class="cls-1" points="310.09 43.56 346.09 22.77 346.09 -18.81 310.09 1.99 310.09 43.56" />
            <polygon class="cls-1" points="238.09 -81.15 346.09 -18.81 310.09 1.99 202.09 -60.37 238.09 -81.15" />
        </g>
        <g>
            <polygon class="cls-1" points="418.09 189.05 418.09 147.48 310.09 85.13 310.09 126.7 418.09 189.05" />
            <polygon class="cls-1" points="418.09 189.05 454.09 168.27 454.09 126.69 418.09 147.48 418.09 189.05" />
            <polygon class="cls-1" points="346.09 64.34 454.09 126.69 418.09 147.48 310.09 85.13 346.09 64.34" />
        </g>
        <g>
            <polygon class="cls-1" points="418.09 313.76 418.09 272.19 310.09 209.83 310.09 251.4 418.09 313.76" />
            <polygon class="cls-1" points="418.09 313.76 454.09 292.97 454.09 251.39 418.09 272.19 418.09 313.76" />
            <polygon class="cls-1" points="346.09 189.05 454.09 251.39 418.09 272.19 310.09 209.83 346.09 189.05" />
        </g>
        <g>
            <polygon class="cls-1" points="310.09 376.13 310.09 334.56 202.09 272.21 202.09 313.78 310.09 376.13" />
            <polygon class="cls-1" points="310.09 376.13 346.09 355.35 346.09 313.77 310.09 334.56 310.09 376.13" />
            <polygon class="cls-1" points="238.09 251.42 346.09 313.77 310.09 334.56 202.09 272.21 238.09 251.42" />
        </g>
        <g>
            <polygon class="cls-1" points="-49.91 209.84 -49.91 168.27 58.09 105.92 58.09 147.49 -49.91 209.84" />
            <polygon class="cls-1" points="22.09 85.14 -85.91 147.48 -49.91 168.27 58.09 105.92 22.09 85.14" />
        </g>
        <g>
            <polygon class="cls-1" points="-85.91 147.48 -85.91 105.91 22.09 43.56 22.09 85.13 -85.91 147.48" />
            <polygon class="cls-1" points="-13.91 22.77 -121.91 85.12 -85.91 105.91 22.09 43.56 -13.91 22.77" />
        </g>
        <g>
            <polygon class="cls-1" points="22.09 292.99 22.09 251.42 130.09 189.07 130.09 230.64 22.09 292.99" />
            <polygon class="cls-1" points="22.09 292.99 -13.91 272.21 -13.91 230.63 22.09 251.42 22.09 292.99" />
            <polygon class="cls-1" points="94.09 168.28 -13.91 230.63 22.09 251.42 130.09 189.07 94.09 168.28" />
        </g>
        <g>
            <polygon class="cls-1" points="202.09 147.48 202.09 105.91 310.09 43.56 310.09 85.13 202.09 147.48" />
            <polygon class="cls-1" points="202.09 147.48 166.09 126.7 166.09 85.12 202.09 105.91 202.09 147.48" />
            <polygon class="cls-1" points="274.09 22.77 166.09 85.12 202.09 105.91 310.09 43.56 274.09 22.77" />
        </g>
        <g>
            <polygon class="cls-1" points="58.09 189.04 58.09 147.47 166.09 85.12 166.09 126.69 58.09 189.04" />
            <polygon class="cls-1" points="58.09 189.04 22.09 168.26 22.09 126.68 58.09 147.47 58.09 189.04" />
            <polygon class="cls-1" points="130.09 64.33 22.09 126.68 58.09 147.47 166.09 85.12 130.09 64.33" />
        </g>
        <g>
            <polygon class="cls-1" points="94.09 334.54 94.09 292.97 202.09 230.62 202.09 272.19 94.09 334.54" />
            <polygon class="cls-1" points="94.09 334.54 58.09 313.76 58.09 272.18 94.09 292.97 94.09 334.54" />
            <polygon class="cls-1" points="166.09 209.83 58.09 272.18 94.09 292.97 202.09 230.62 166.09 209.83" />
        </g>
        <g>
            <polygon class="cls-1" points="166.09 459.25 166.09 417.68 274.09 355.33 274.09 396.9 166.09 459.25" />
            <polygon class="cls-1" points="166.09 459.25 130.09 438.47 130.09 396.89 166.09 417.68 166.09 459.25" />
            <polygon class="cls-1" points="238.09 334.54 130.09 396.89 166.09 417.68 274.09 355.33 238.09 334.54" />
        </g>
        <g>
            <polygon class="cls-1" points="274.09 480.05 274.09 438.48 382.09 376.13 382.09 417.7 274.09 480.05" />
            <polygon class="cls-1" points="274.09 480.05 238.09 459.27 238.09 417.69 274.09 438.48 274.09 480.05" />
            <polygon class="cls-1" points="346.09 355.35 238.09 417.69 274.09 438.48 382.09 376.13 346.09 355.35" />
        </g>
        <g>
            <polygon class="cls-1" points="166.09 583.96 166.09 542.39 274.09 480.03 274.09 521.6 166.09 583.96" />
            <polygon class="cls-1" points="166.09 583.96 130.09 563.17 130.09 521.59 166.09 542.39 166.09 583.96" />
            <polygon class="cls-1" points="238.09 459.25 130.09 521.59 166.09 542.39 274.09 480.03 238.09 459.25" />
        </g>
        <g>
            <polygon class="cls-1" points="310.09 209.83 310.09 168.27 418.09 105.91 418.09 147.48 310.09 209.83" />
            <polygon class="cls-1" points="310.09 209.83 274.09 189.05 274.09 147.47 310.09 168.27 310.09 209.83" />
            <polygon class="cls-1" points="382.09 85.13 274.09 147.47 310.09 168.27 418.09 105.91 382.09 85.13" />
        </g>
        <g>
            <polygon class="cls-1" points="202.09 147.48 202.09 105.91 94.09 43.56 94.09 85.13 202.09 147.48" />
            <polygon class="cls-1" points="202.09 147.48 238.09 126.7 238.09 85.12 202.09 105.91 202.09 147.48" />
            <polygon class="cls-1" points="130.09 22.77 238.09 85.12 202.09 105.91 94.09 43.56 130.09 22.77" />
        </g>
        <g>
            <polygon class="cls-1" points="58.09 64.34 58.09 22.77 -49.91 -39.58 -49.91 1.99 58.09 64.34" />
            <polygon class="cls-1" points="58.09 64.34 94.09 43.56 94.09 1.98 58.09 22.77 58.09 64.34" />
            <polygon class="cls-1" points="-13.91 -60.37 94.09 1.98 58.09 22.77 -49.91 -39.58 -13.91 -60.37" />
        </g>
        <g>
            <polygon class="cls-1" points="274.09 272.19 274.09 230.62 166.09 168.27 166.09 209.83 274.09 272.19" />
            <polygon class="cls-1" points="274.09 272.19 310.09 251.4 310.09 209.82 274.09 230.62 274.09 272.19" />
            <polygon class="cls-1" points="202.09 147.48 310.09 209.82 274.09 230.62 166.09 168.27 202.09 147.48" />
        </g>
        <g>
            <polygon class="cls-1" points="130.09 230.63 130.09 189.06 22.09 126.71 22.09 168.27 130.09 230.63" />
            <polygon class="cls-1" points="130.09 230.63 166.09 209.84 166.09 168.27 130.09 189.06 130.09 230.63" />
            <polygon class="cls-1" points="58.09 105.92 166.09 168.27 130.09 189.06 22.09 126.71 58.09 105.92" />
        </g>
        <g>
            <polygon class="cls-1" points="22.09 126.71 22.09 85.14 -85.91 22.78 -85.91 64.35 22.09 126.71" />
            <polygon class="cls-1" points="22.09 126.71 58.09 105.92 58.09 64.34 22.09 85.14 22.09 126.71" />
            <polygon class="cls-1" points="-49.91 2 58.09 64.34 22.09 85.14 -85.91 22.78 -49.91 2" />
        </g>
        <g>
            <polygon class="cls-1" points="94.09 542.43 94.09 500.86 202.09 438.5 202.09 480.07 94.09 542.43" />
            <polygon class="cls-1" points="94.09 542.43 58.09 521.64 58.09 480.06 94.09 500.86 94.09 542.43" />
            <polygon class="cls-1" points="166.09 417.72 58.09 480.06 94.09 500.86 202.09 438.5 166.09 417.72" />
        </g>
        <g>
            <polygon class="cls-1" points="58.09 480.06 58.09 438.49 166.09 376.14 166.09 417.71 58.09 480.06" />
            <polygon class="cls-1" points="58.09 480.06 22.09 459.28 22.09 417.7 58.09 438.49 58.09 480.06" />
            <polygon class="cls-1" points="130.09 355.36 22.09 417.7 58.09 438.49 166.09 376.14 130.09 355.36" />
        </g>
        <g>
            <polygon class="cls-1" points="-85.91 396.92 -85.91 355.35 22.09 292.99 22.09 334.56 -85.91 396.92" />
            <polygon class="cls-1" points="-13.91 272.21 -121.91 334.55 -85.91 355.35 22.09 292.99 -13.91 272.21" />
        </g>
        <g>
            <polygon class="cls-1" points="22.09 500.85 22.09 459.28 -85.91 396.93 -85.91 438.49 22.09 500.85" />
            <polygon class="cls-1" points="22.09 500.85 58.09 480.06 58.09 438.48 22.09 459.28 22.09 500.85" />
            <polygon class="cls-1" points="-49.91 376.14 58.09 438.48 22.09 459.28 -85.91 396.93 -49.91 376.14" />
        </g>
        <g>
            <polygon class="cls-1" points="94.09 417.7 94.09 376.13 -13.91 313.78 -13.91 355.35 94.09 417.7" />
            <polygon class="cls-1" points="94.09 417.7 130.09 396.92 130.09 355.34 94.09 376.13 94.09 417.7" />
            <polygon class="cls-1" points="22.09 292.99 130.09 355.34 94.09 376.13 -13.91 313.78 22.09 292.99" />
        </g>
        <g>
            <polygon class="cls-1" points="238.09 417.69 238.09 376.12 130.09 313.77 130.09 355.34 238.09 417.69" />
            <polygon class="cls-1" points="238.09 417.69 274.09 396.91 274.09 355.33 238.09 376.12 238.09 417.69" />
            <polygon class="cls-1" points="166.09 292.98 274.09 355.33 238.09 376.12 130.09 313.77 166.09 292.98" />
        </g>
        <g>
            <polygon class="cls-1" points="382.09 583.96 382.09 542.39 274.09 480.03 274.09 521.6 382.09 583.96" />
            <polygon class="cls-1" points="382.09 583.96 418.09 563.17 418.09 521.59 382.09 542.39 382.09 583.96" />
            <polygon class="cls-1" points="310.09 459.25 418.09 521.59 382.09 542.39 274.09 480.03 310.09 459.25" />
        </g>
        <g>
            <polygon class="cls-1" points="274.09 687.89 274.09 646.32 382.09 583.97 382.09 625.54 274.09 687.89" />
            <polygon class="cls-1" points="274.09 687.89 238.09 667.11 238.09 625.53 274.09 646.32 274.09 687.89" />
            <polygon class="cls-1" points="346.09 563.18 238.09 625.53 274.09 646.32 382.09 583.97 346.09 563.18" />
        </g>
        <g>
            <polygon class="cls-1" points="130.09 687.88 130.09 646.31 238.09 583.96 238.09 625.53 130.09 687.88" />
            <polygon class="cls-1" points="130.09 687.88 94.09 667.1 94.09 625.52 130.09 646.31 130.09 687.88" />
            <polygon class="cls-1" points="202.09 563.17 94.09 625.52 130.09 646.31 238.09 583.96 202.09 563.17" />
        </g>
        <g>
            <polygon class="cls-1" points="346.09 646.31 346.09 604.74 238.09 542.39 238.09 583.96 346.09 646.31" />
            <polygon class="cls-1" points="346.09 646.31 382.09 625.53 382.09 583.95 346.09 604.74 346.09 646.31" />
            <polygon class="cls-1" points="274.09 521.6 382.09 583.95 346.09 604.74 238.09 542.39 274.09 521.6" />
        </g>
        <g>
            <g>
                <polygon class="cls-1" points="238.13 833.34 238.13 791.77 346.13 729.42 346.13 770.99 238.13 833.34" />
                <polygon class="cls-1" points="238.13 833.34 202.13 812.56 202.13 770.98 238.13 791.77 238.13 833.34" />
                <polygon class="cls-1" points="310.13 708.64 202.13 770.98 238.13 791.77 346.13 729.42 310.13 708.64" />
            </g>
            <g>
                <polygon class="cls-1" points="166.13 667.06 166.13 625.49 58.13 563.13 58.13 604.7 166.13 667.06" />
                <polygon class="cls-1" points="166.13 667.06 202.13 646.27 202.13 604.69 166.13 625.49 166.13 667.06" />
                <polygon class="cls-1" points="94.13 542.35 202.13 604.69 166.13 625.49 58.13 563.13 94.13 542.35" />
            </g>
            <g>
                <polygon class="cls-1" points="22.13 583.91 22.13 542.34 -85.87 479.99 -85.87 521.56 22.13 583.91" />
                <polygon class="cls-1" points="22.13 583.91 58.13 563.12 58.13 521.55 22.13 542.34 22.13 583.91" />
                <polygon class="cls-1" points="-49.87 459.2 58.13 521.55 22.13 542.34 -85.87 479.99 -49.87 459.2" />
            </g>
            <g>
                <polygon class="cls-1" points="310.13 667.06 310.13 625.49 202.13 563.13 202.13 604.7 310.13 667.06" />
                <polygon class="cls-1" points="310.13 667.06 346.13 646.27 346.13 604.69 310.13 625.49 310.13 667.06" />
                <polygon class="cls-1" points="238.13 542.35 346.13 604.69 310.13 625.49 202.13 563.13 238.13 542.35" />
            </g>
            <g>
                <polygon class="cls-1" points="346.13 563.13 346.13 521.57 238.13 459.21 238.13 500.78 346.13 563.13" />
                <polygon class="cls-1" points="346.13 563.13 382.13 542.35 382.13 500.77 346.13 521.57 346.13 563.13" />
                <polygon class="cls-1" points="274.13 438.43 382.13 500.77 346.13 521.57 238.13 459.21 274.13 438.43" />
            </g>
            <g>
                <polygon class="cls-1" points="418.13 812.55 418.13 770.98 310.13 708.63 310.13 750.2 418.13 812.55" />
                <polygon class="cls-1" points="418.13 812.55 454.13 791.77 454.13 750.19 418.13 770.98 418.13 812.55" />
                <polygon class="cls-1" points="346.13 687.84 454.13 750.19 418.13 770.98 310.13 708.63 346.13 687.84" />
            </g>
            <g>
                <polygon class="cls-1" points="418.13 937.26 418.13 895.69 310.13 833.33 310.13 874.9 418.13 937.26" />
                <polygon class="cls-1" points="418.13 937.26 454.13 916.47 454.13 874.89 418.13 895.69 418.13 937.26" />
                <polygon class="cls-1" points="346.13 812.55 454.13 874.89 418.13 895.69 310.13 833.33 346.13 812.55" />
            </g>
            <g>
                <polygon class="cls-1" points="310.13 999.63 310.13 958.06 202.13 895.71 202.13 937.28 310.13 999.63" />
                <polygon class="cls-1" points="310.13 999.63 346.13 978.85 346.13 937.27 310.13 958.06 310.13 999.63" />
                <polygon class="cls-1" points="238.13 874.92 346.13 937.27 310.13 958.06 202.13 895.71 238.13 874.92" />
            </g>
            <g>
                <polygon class="cls-1" points="130.13 604.7 130.13 563.13 238.13 500.78 238.13 542.35 130.13 604.7" />
                <polygon class="cls-1" points="130.13 604.7 94.13 583.92 94.13 542.34 130.13 563.13 130.13 604.7" />
                <polygon class="cls-1" points="202.13 480 94.13 542.34 130.13 563.13 238.13 500.78 202.13 480" />
            </g>
            <g>
                <polygon class="cls-1" points="-49.87 833.34 -49.87 791.77 58.13 729.42 58.13 770.99 -49.87 833.34" />
                <polygon class="cls-1" points="22.13 708.64 -85.87 770.98 -49.87 791.77 58.13 729.42 22.13 708.64" />
            </g>
            <g>
                <polygon class="cls-1" points="-85.87 770.98 -85.87 729.41 22.13 667.06 22.13 708.63 -85.87 770.98" />
                <polygon class="cls-1" points="-13.87 646.27 -121.87 708.62 -85.87 729.41 22.13 667.06 -13.87 646.27" />
            </g>
            <g>
                <polygon class="cls-1" points="22.13 916.49 22.13 874.92 130.13 812.57 130.13 854.14 22.13 916.49" />
                <polygon class="cls-1" points="22.13 916.49 -13.87 895.71 -13.87 854.13 22.13 874.92 22.13 916.49" />
                <polygon class="cls-1" points="94.13 791.78 -13.87 854.13 22.13 874.92 130.13 812.57 94.13 791.78" />
            </g>
            <g>
                <polygon class="cls-1" points="202.13 770.98 202.13 729.41 310.13 667.06 310.13 708.63 202.13 770.98" />
                <polygon class="cls-1" points="202.13 770.98 166.13 750.2 166.13 708.62 202.13 729.41 202.13 770.98" />
                <polygon class="cls-1" points="274.13 646.27 166.13 708.62 202.13 729.41 310.13 667.06 274.13 646.27" />
            </g>
            <g>
                <polygon class="cls-1" points="58.13 812.54 58.13 770.97 166.13 708.62 166.13 750.19 58.13 812.54" />
                <polygon class="cls-1" points="58.13 812.54 22.13 791.76 22.13 750.18 58.13 770.97 58.13 812.54" />
                <polygon class="cls-1" points="130.13 687.83 22.13 750.18 58.13 770.97 166.13 708.62 130.13 687.83" />
            </g>
            <g>
                <polygon class="cls-1" points="94.13 958.04 94.13 916.47 202.13 854.12 202.13 895.69 94.13 958.04" />
                <polygon class="cls-1" points="94.13 958.04 58.13 937.26 58.13 895.68 94.13 916.47 94.13 958.04" />
                <polygon class="cls-1" points="166.13 833.33 58.13 895.68 94.13 916.47 202.13 854.12 166.13 833.33" />
            </g>
            <g>
                <polygon class="cls-1"
                    points="166.13 1082.75 166.13 1041.18 274.13 978.83 274.13 1020.4 166.13 1082.75" />
                <polygon class="cls-1"
                    points="238.13 958.04 130.13 1020.39 166.13 1041.18 274.13 978.83 238.13 958.04" />
            </g>
            <polygon class="cls-1" points="346.13 978.85 238.13 1041.19 274.13 1061.98 382.13 999.63 346.13 978.85" />
            <g>
                <polygon class="cls-1" points="310.13 833.33 310.13 791.77 418.13 729.41 418.13 770.98 310.13 833.33" />
                <polygon class="cls-1" points="310.13 833.33 274.13 812.55 274.13 770.97 310.13 791.77 310.13 833.33" />
                <polygon class="cls-1" points="382.13 708.63 274.13 770.97 310.13 791.77 418.13 729.41 382.13 708.63" />
            </g>
            <g>
                <polygon class="cls-1" points="202.13 770.98 202.13 729.41 94.13 667.06 94.13 708.63 202.13 770.98" />
                <polygon class="cls-1" points="202.13 770.98 238.13 750.2 238.13 708.62 202.13 729.41 202.13 770.98" />
                <polygon class="cls-1" points="130.13 646.27 238.13 708.62 202.13 729.41 94.13 667.06 130.13 646.27" />
            </g>
            <g>
                <polygon class="cls-1" points="58.13 687.84 58.13 646.27 -49.87 583.92 -49.87 625.49 58.13 687.84" />
                <polygon class="cls-1" points="58.13 687.84 94.13 667.06 94.13 625.48 58.13 646.27 58.13 687.84" />
                <polygon class="cls-1" points="-13.87 563.13 94.13 625.48 58.13 646.27 -49.87 583.92 -13.87 563.13" />
            </g>
            <g>
                <polygon class="cls-1" points="274.13 895.69 274.13 854.12 166.13 791.77 166.13 833.33 274.13 895.69" />
                <polygon class="cls-1" points="274.13 895.69 310.13 874.9 310.13 833.32 274.13 854.12 274.13 895.69" />
                <polygon class="cls-1" points="202.13 770.98 310.13 833.32 274.13 854.12 166.13 791.77 202.13 770.98" />
            </g>
            <g>
                <polygon class="cls-1" points="130.13 854.13 130.13 812.56 22.13 750.21 22.13 791.77 130.13 854.13" />
                <polygon class="cls-1" points="130.13 854.13 166.13 833.34 166.13 791.77 130.13 812.56 130.13 854.13" />
                <polygon class="cls-1" points="58.13 729.42 166.13 791.77 130.13 812.56 22.13 750.21 58.13 729.42" />
            </g>
            <g>
                <polygon class="cls-1" points="22.13 750.21 22.13 708.64 -85.87 646.28 -85.87 687.85 22.13 750.21" />
                <polygon class="cls-1" points="22.13 750.21 58.13 729.42 58.13 687.84 22.13 708.64 22.13 750.21" />
                <polygon class="cls-1" points="-49.87 625.5 58.13 687.84 22.13 708.64 -85.87 646.28 -49.87 625.5" />
            </g>
            <polygon class="cls-1" points="130.13 978.86 22.13 1041.2 58.13 1061.99 166.13 999.64 130.13 978.86" />
            <g>
                <polygon class="cls-1" points="-85.87 1020.42 -85.87 978.85 22.13 916.49 22.13 958.06 -85.87 1020.42" />
                <polygon class="cls-1" points="-13.87 895.71 -121.87 958.05 -85.87 978.85 22.13 916.49 -13.87 895.71" />
            </g>
            <g>
                <polygon class="cls-1" points="94.13 1041.2 94.13 999.63 -13.87 937.28 -13.87 978.85 94.13 1041.2" />
                <polygon class="cls-1" points="94.13 1041.2 130.13 1020.42 130.13 978.84 94.13 999.63 94.13 1041.2" />
                <polygon class="cls-1" points="22.13 916.49 130.13 978.84 94.13 999.63 -13.87 937.28 22.13 916.49" />
            </g>
            <g>
                <polygon class="cls-1"
                    points="238.13 1041.19 238.13 999.62 130.13 937.27 130.13 978.84 238.13 1041.19" />
                <polygon class="cls-1"
                    points="238.13 1041.19 274.13 1020.41 274.13 978.83 238.13 999.62 238.13 1041.19" />
                <polygon class="cls-1" points="166.13 916.48 274.13 978.83 238.13 999.62 130.13 937.27 166.13 916.48" />
            </g>
        </g>
    </g>
</svg>