<?xml version="1.0" encoding="UTF-8"?>
<svg id="Calque_1" xmlns="http://www.w3.org/2000/svg" viewBox="0 0 500 500">
    <defs>
        <style>
            .cls-1 {
                fill: #fff;
            }

            .cls-2 {
                fill: #0c102c;
            }

            .cls-3 {
                fill: #0d102b;
            }
        </style>
    </defs>
    <rect class="cls-2" x=".41" y=".41" width="499.59" height="499.59" />
    <g>
        <g>
            <g>
                <polygon class="cls-3" points="100 284.64 100 250 219.99 180.72 219.99 215.35 100 284.64" />
                <path class="cls-1"
                    d="M100,285.89c-.22,0-.43-.06-.62-.17-.39-.22-.62-.64-.62-1.08v-34.64c0-.45,.24-.86,.62-1.08l119.99-69.29c.39-.22,.86-.22,1.25,0,.39,.22,.62,.64,.62,1.08v34.64c0,.45-.24,.86-.62,1.08l-119.99,69.29c-.19,.11-.41,.17-.62,.17Zm1.25-35.17v31.75l117.49-67.84v-31.75l-117.49,67.84Z" />
            </g>
            <g>
                <polygon class="cls-3" points="100 284.64 70 267.32 70 232.67 100 250 100 284.64" />
                <path class="cls-1"
                    d="M100,285.89c-.22,0-.43-.06-.62-.17l-30-17.32c-.39-.22-.62-.64-.62-1.08v-34.65c0-.45,.24-.86,.62-1.08,.39-.22,.86-.22,1.25,0l30,17.33c.39,.22,.62,.64,.62,1.08v34.64c0,.45-.24,.86-.62,1.08-.19,.11-.41,.17-.62,.17Zm-28.75-19.29l27.5,15.88v-31.75l-27.5-15.88v31.76Z" />
            </g>
        </g>
        <g>
            <g>
                <polygon class="cls-3" points="219.99 353.93 219.99 319.29 339.99 249.99 339.99 284.63 219.99 353.93" />
                <path class="cls-1"
                    d="M219.99,355.18c-.22,0-.43-.06-.62-.17-.39-.22-.62-.64-.62-1.08v-34.64c0-.45,.24-.86,.62-1.08l119.99-69.3c.39-.22,.86-.22,1.25,0,.39,.22,.62,.64,.62,1.08v34.64c0,.45-.24,.86-.62,1.08l-119.99,69.3c-.19,.11-.41,.17-.62,.17Zm1.25-35.17v31.75l117.49-67.86v-31.75l-117.49,67.86Z" />
            </g>
            <g>
                <polygon class="cls-3" points="219.99 353.93 189.99 336.61 189.99 301.97 219.99 319.29 219.99 353.93" />
                <path class="cls-1"
                    d="M219.99,355.18c-.22,0-.43-.06-.62-.17l-30-17.32c-.39-.22-.62-.64-.62-1.08v-34.65c0-.45,.24-.86,.62-1.08,.39-.22,.86-.22,1.25,0l30,17.33c.39,.22,.62,.64,.62,1.08v34.64c0,.45-.24,.86-.62,1.08-.19,.11-.41,.17-.62,.17Zm-28.75-19.29l27.5,15.88v-31.75l-27.5-15.88v31.76Z" />
            </g>
            <g>
                <polygon class="cls-3"
                    points="339.99 249.99 219.99 319.29 189.99 301.96 189.99 198.04 100 250.01 70 232.67 189.99 163.39 219.99 180.72 219.99 284.65 309.99 232.67 339.99 249.99" />
                <path class="cls-1"
                    d="M219.99,320.54c-.22,0-.43-.06-.63-.17l-30-17.33c-.39-.22-.62-.64-.62-1.08v-101.76l-88.12,50.88c-.39,.22-.86,.22-1.25,0l-30-17.33c-.39-.22-.62-.64-.62-1.08s.24-.86,.62-1.08l119.99-69.28c.39-.22,.86-.22,1.25,0l30,17.32c.39,.22,.62,.64,.62,1.08v101.76s88.12-50.89,88.12-50.89c.39-.22,.86-.22,1.25,0l30,17.32c.39,.22,.62,.64,.62,1.08s-.24,.86-.62,1.08l-119.99,69.31c-.19,.11-.41,.17-.62,.17Zm-28.75-19.3l28.75,16.61,117.49-67.86-27.5-15.87-89.38,51.61c-.39,.22-.86,.22-1.25,0-.39-.22-.62-.64-.62-1.08v-103.21s-28.74-16.6-28.74-16.6l-117.5,67.84,27.5,15.89,89.37-51.6c.39-.22,.86-.22,1.25,0,.39,.22,.62,.64,.62,1.08v103.2Z" />
            </g>
        </g>
        <g>
            <g>
                <g>
                    <polygon class="cls-3" points="400 284.64 400 250 250 163.39 250 198.03 400 284.64" />
                    <path class="cls-1"
                        d="M400,285.89c-.22,0-.43-.06-.62-.17l-150.01-86.61c-.39-.22-.62-.64-.62-1.08v-34.64c0-.45,.24-.86,.62-1.08,.39-.22,.86-.22,1.25,0l150.01,86.61c.39,.22,.62,.64,.62,1.08v34.64c0,.45-.24,.86-.62,1.08-.19,.11-.41,.17-.62,.17Zm-148.76-88.58l147.51,85.17v-31.75l-147.51-85.17v31.75Z" />
                </g>
                <g>
                    <polygon class="cls-3" points="400 284.64 430 267.32 430 232.67 400 250 400 284.64" />
                    <path class="cls-1"
                        d="M400,285.89c-.22,0-.43-.06-.62-.17-.39-.22-.62-.64-.62-1.08v-34.64c0-.45,.24-.86,.62-1.08l30-17.33c.39-.22,.86-.22,1.25,0,.39,.22,.62,.64,.62,1.08v34.65c0,.45-.24,.86-.62,1.08l-30,17.32c-.19,.11-.41,.17-.62,.17Zm1.25-35.17v31.75l27.5-15.88v-31.76l-27.5,15.88Z" />
                </g>
                <g>
                    <polygon class="cls-3" points="280 146.07 430 232.67 400 250 250 163.39 280 146.07" />
                    <path class="cls-1"
                        d="M400,251.25c-.22,0-.43-.06-.62-.17l-150.01-86.61c-.39-.22-.62-.64-.62-1.08s.24-.86,.62-1.08l30-17.32c.39-.22,.86-.22,1.25,0l150.01,86.6c.39,.22,.62,.64,.62,1.08s-.24,.86-.62,1.08l-30,17.33c-.19,.11-.41,.17-.62,.17Zm-147.51-87.86l147.51,85.17,27.5-15.88-147.51-85.16-27.5,15.88Z" />
                </g>
            </g>
            <g>
                <g>
                    <polygon class="cls-3" points="220 319.32 220 284.68 339.99 215.37 339.99 250.01 220 319.32" />
                    <path class="cls-1"
                        d="M220,320.57c-.22,0-.43-.06-.62-.17-.39-.22-.62-.64-.62-1.08v-34.64c0-.45,.24-.86,.62-1.08l119.99-69.3c.39-.22,.86-.22,1.25,0,.39,.22,.62,.64,.62,1.08v34.64c0,.45-.24,.86-.62,1.08l-119.99,69.3c-.19,.11-.41,.17-.62,.17Zm1.25-35.17v31.75l117.49-67.86v-31.75l-117.49,67.86Z" />
                </g>
                <g>
                    <polygon class="cls-3" points="220 319.32 190 302 190 267.35 220 284.68 220 319.32" />
                    <path class="cls-1"
                        d="M220,320.57c-.22,0-.43-.06-.62-.17l-30-17.32c-.39-.22-.62-.64-.62-1.08v-34.65c0-.45,.24-.86,.62-1.08,.39-.22,.86-.22,1.25,0l30,17.33c.39,.22,.62,.64,.62,1.08v34.64c0,.45-.24,.86-.62,1.08-.19,.11-.41,.17-.62,.17Zm-28.75-19.29l27.5,15.88v-31.75l-27.5-15.88v31.76Z" />
                </g>
                <g>
                    <polygon class="cls-3" points="309.99 198.05 190 267.35 220 284.68 339.99 215.37 309.99 198.05" />
                    <path class="cls-1"
                        d="M220,285.93c-.22,0-.43-.06-.62-.17l-30-17.33c-.39-.22-.62-.64-.62-1.08s.24-.86,.62-1.08l119.99-69.29c.39-.22,.86-.22,1.25,0l30,17.32c.39,.22,.62,.64,.62,1.08s-.24,.86-.62,1.08l-119.99,69.3c-.19,.11-.41,.17-.62,.17Zm-27.5-18.58l27.5,15.88,117.49-67.86-27.5-15.88-117.5,67.85Z" />
                </g>
            </g>
        </g>
    </g>
</svg>