<svg width="130" height="76" viewBox="0 0 130 76" fill="none" xmlns="http://www.w3.org/2000/svg">
<path d="M11.2069 50.5143V37.9991L54.2378 12.9687V25.4803L11.2069 50.5143Z" fill="#0C102C"/>
<path d="M11.2069 50.9659C11.128 50.9659 11.0527 50.9443 10.9846 50.9045C10.8447 50.825 10.7622 50.6733 10.7622 50.5143V37.9991C10.7622 37.8365 10.8483 37.6884 10.9846 37.6089L54.0154 12.5748C54.1553 12.4954 54.3239 12.4954 54.4637 12.5748C54.6036 12.6543 54.6861 12.8061 54.6861 12.965V25.4803C54.6861 25.6428 54.6 25.791 54.4637 25.8705L11.4328 50.9045C11.3647 50.9443 11.2858 50.9659 11.2105 50.9659H11.2069ZM11.6552 38.2592V49.7303L53.7895 25.2201V13.749L11.6552 38.2592V38.2592Z" fill="white"/>
<path d="M11.2069 50.5143L0.448303 44.2567V31.7379L11.2069 37.9991V50.5143Z" fill="#0C102C"/>
<path d="M11.2069 50.9659C11.128 50.9659 11.0527 50.9443 10.9846 50.9045L0.225944 44.6469C0.0860821 44.5674 0.00360107 44.4157 0.00360107 44.2567V31.7379C0.00360107 31.5753 0.0896683 31.4272 0.225944 31.3477C0.365806 31.2682 0.534358 31.2682 0.67422 31.3477L11.4328 37.6089C11.5727 37.6884 11.6552 37.8401 11.6552 37.9991V50.5143C11.6552 50.6769 11.5691 50.825 11.4328 50.9045C11.3647 50.9443 11.2858 50.9659 11.2105 50.9659H11.2069ZM0.896566 43.9966L10.7586 49.7339V38.2628L0.896566 32.5255V44.0002V43.9966Z" fill="white"/>
<path d="M54.2378 75.5484V63.0332L97.2723 37.9955V50.5107L54.2378 75.5484Z" fill="#0C102C"/>
<path d="M54.2378 76C54.1589 76 54.0836 75.9783 54.0154 75.9386C53.8756 75.8591 53.7931 75.7074 53.7931 75.5484V63.0332C53.7931 62.8706 53.8792 62.7225 54.0154 62.643L97.0463 37.6053C97.1862 37.5258 97.3547 37.5258 97.4946 37.6053C97.6345 37.6848 97.717 37.8365 97.717 37.9955V50.5107C97.717 50.6733 97.6309 50.8214 97.4946 50.9009L54.4637 75.9386C54.3956 75.9783 54.3167 76 54.2414 76H54.2378ZM54.6861 63.2933V74.7644L96.8204 50.247V38.7759L54.6861 63.2933Z" fill="white"/>
<path d="M54.2378 75.5484L43.4792 69.2908V56.7756L54.2378 63.0332V75.5484Z" fill="#0C102C"/>
<path d="M54.2378 76C54.1589 76 54.0836 75.9783 54.0155 75.9386L43.2568 69.681C43.117 69.6015 43.0345 69.4498 43.0345 69.2908V56.7719C43.0345 56.6094 43.1206 56.4612 43.2568 56.3818C43.3967 56.3023 43.5652 56.3023 43.7051 56.3818L54.4637 62.643C54.6036 62.7225 54.6861 62.8742 54.6861 63.0332V75.5484C54.6861 75.711 54.6 75.8591 54.4637 75.9386C54.3956 75.9783 54.3167 76 54.2414 76H54.2378ZM43.9275 69.0307L53.7895 74.768V63.2969L43.9275 57.5596V69.0343V69.0307Z" fill="white"/>
<path d="M97.2723 37.9955L54.2378 63.0332L43.4792 56.772V19.2263L11.2069 38.0027L0.448303 31.7379L43.4792 6.70746L54.2378 12.9687V50.518L86.5137 31.7379L97.2723 37.9955Z" fill="#0C102C"/>
<path d="M54.2378 63.4848C54.1589 63.4848 54.0836 63.4631 54.0119 63.4234L43.2532 57.1621C43.1134 57.0827 43.0309 56.9309 43.0309 56.7719V20.0067L11.4292 38.3893C11.2894 38.4688 11.1208 38.4688 10.981 38.3893L0.222346 32.1281C0.0824838 32.0486 0 31.8969 0 31.7379C0 31.5789 0.08607 31.4272 0.222346 31.3477L43.2532 6.31724C43.3931 6.23776 43.5617 6.23776 43.7015 6.31724L54.4601 12.5749C54.6 12.6543 54.6825 12.8061 54.6825 12.9651V49.7303L86.2841 31.3441C86.424 31.2646 86.5926 31.2646 86.7324 31.3441L97.491 37.6017C97.6309 37.6812 97.7134 37.8329 97.7134 37.9919C97.7134 38.1509 97.6273 38.3026 97.491 38.3821L54.4601 63.4234C54.392 63.4631 54.3131 63.4848 54.2378 63.4848V63.4848ZM43.9275 56.5118L54.2378 62.5129L96.3721 37.9955L86.5101 32.2618L54.4566 50.9082C54.3167 50.9876 54.1481 50.9876 54.0083 50.9082C53.8684 50.8287 53.7859 50.6769 53.7859 50.518V13.2288L43.4792 7.23132L1.34124 31.7415L11.2033 37.4825L43.2532 18.8397C43.3931 18.7602 43.5617 18.7602 43.7015 18.8397C43.8414 18.9192 43.9239 19.0709 43.9239 19.2299V56.5154L43.9275 56.5118Z" fill="white"/>
<path d="M118.793 50.5144V37.9991L65 6.70746V19.2227L118.793 50.5144Z" fill="#0C102C"/>
<path d="M118.793 50.966C118.714 50.966 118.639 50.9443 118.571 50.9045L64.7741 19.6129C64.6342 19.5334 64.5518 19.3816 64.5518 19.2227V6.70744C64.5518 6.54486 64.6378 6.39673 64.7741 6.31724C64.914 6.23776 65.0825 6.23776 65.2224 6.31724L119.019 37.6089C119.159 37.6884 119.241 37.8401 119.241 37.9991V50.5143C119.241 50.6769 119.155 50.8251 119.019 50.9045C118.951 50.9443 118.872 50.966 118.797 50.966H118.793ZM65.4447 18.9625L118.345 49.734V38.2629L65.4447 7.49145V18.9625Z" fill="white"/>
<path d="M118.793 50.5143L129.552 44.2567V31.7379L118.793 37.9991V50.5143Z" fill="#0C102C"/>
<path d="M118.793 50.9659C118.714 50.9659 118.639 50.9443 118.571 50.9045C118.431 50.825 118.348 50.6733 118.348 50.5143V37.9991C118.348 37.8365 118.435 37.6884 118.571 37.6089L129.329 31.3477C129.469 31.2682 129.638 31.2682 129.778 31.3477C129.918 31.4272 130 31.5789 130 31.7379V44.2567C130 44.4193 129.914 44.5674 129.778 44.6469L119.019 50.9045C118.951 50.9443 118.872 50.9659 118.797 50.9659H118.793ZM119.241 38.2592V49.7303L129.103 43.993V32.5183L119.241 38.2556V38.2592Z" fill="white"/>
<path d="M75.7586 0.449799L129.552 31.7379L118.793 37.9991L65 6.70741L75.7586 0.449799Z" fill="#0C102C"/>
<path d="M118.793 38.4507C118.714 38.4507 118.639 38.429 118.571 38.3893L64.7741 7.09762C64.6342 7.01814 64.5518 6.86639 64.5518 6.70742C64.5518 6.54845 64.6378 6.39671 64.7741 6.31722L75.5327 0.0596135C75.6726 -0.0198712 75.8411 -0.0198712 75.981 0.0596135L129.778 31.3477C129.918 31.4272 130 31.5789 130 31.7379C130 31.8968 129.914 32.0486 129.778 32.1281L119.019 38.3893C118.951 38.429 118.872 38.4507 118.797 38.4507H118.793ZM65.893 6.70742L118.793 37.4788L128.655 31.7415L75.7551 0.973687L65.893 6.71103V6.70742Z" fill="white"/>
<path d="M54.2414 63.044V50.5288L97.2723 25.4875V38.0027L54.2414 63.044Z" fill="#0C102C"/>
<path d="M54.2414 63.4956C54.1625 63.4956 54.0872 63.4739 54.019 63.4342C53.8792 63.3547 53.7967 63.203 53.7967 63.044V50.5288C53.7967 50.3662 53.8828 50.2181 54.019 50.1386L97.0499 25.1009C97.1898 25.0214 97.3583 25.0214 97.4982 25.1009C97.6381 25.1804 97.7206 25.3321 97.7206 25.4911V38.0063C97.7206 38.1689 97.6345 38.317 97.4982 38.3965L54.4673 63.4342C54.3992 63.4739 54.3203 63.4956 54.245 63.4956H54.2414ZM54.6897 50.7889V62.26L96.824 37.7426V26.2715L54.6897 50.7889Z" fill="white"/>
<path d="M54.2414 63.044L43.4828 56.7864V44.2675L54.2414 50.5288V63.044Z" fill="#0C102C"/>
<path d="M54.2414 63.4956C54.1625 63.4956 54.0872 63.4739 54.0191 63.4342L43.2604 57.1766C43.1206 57.0971 43.0381 56.9453 43.0381 56.7864V44.2675C43.0381 44.105 43.1242 43.9568 43.2604 43.8773C43.4003 43.7978 43.5688 43.7978 43.7087 43.8773L54.4673 50.1386C54.6072 50.218 54.6897 50.3698 54.6897 50.5288V63.044C54.6897 63.2066 54.6036 63.3547 54.4673 63.4342C54.3992 63.4739 54.3203 63.4956 54.245 63.4956H54.2414ZM43.9311 56.5262L53.7931 62.2636V50.7925L43.9311 45.0552V56.5299V56.5262Z" fill="white"/>
<path d="M86.5137 19.2299L43.4828 44.2675L54.2414 50.5288L97.2723 25.4875L86.5137 19.2299Z" fill="#0C102C"/>
<path d="M54.2414 50.9804C54.1625 50.9804 54.0872 50.9587 54.0191 50.919L43.2604 44.6577C43.1206 44.5782 43.0381 44.4265 43.0381 44.2675C43.0381 44.1086 43.1242 43.9568 43.2604 43.8773L86.2913 18.8433C86.4312 18.7638 86.5997 18.7638 86.7396 18.8433L97.4982 25.1009C97.6381 25.1804 97.7206 25.3321 97.7206 25.4911C97.7206 25.6501 97.6345 25.8018 97.4982 25.8813L54.4673 50.919C54.3992 50.9587 54.3203 50.9804 54.245 50.9804H54.2414ZM44.3793 44.2675L54.2414 50.0049L96.3757 25.4875L86.5137 19.7501L44.3757 44.2639L44.3793 44.2675Z" fill="white"/>
</svg>
