<?xml version="1.0" encoding="UTF-8"?>
<svg id="Calque_2" data-name="Calque 2" xmlns="http://www.w3.org/2000/svg" viewBox="0 0 755.14 421.4">
  <defs>
    <style>
      .cls-1 {
        fill: white;
      }

      .cls-2 {
        fill: #ffb608;
      }
    </style>
  </defs>
  <g id="HéOTi">
    <g>
      <path class="cls-1" d="m134.67,3.01h27.34v191h-27.34v-83.12H27.35v83.12H0V3.01h27.34v82.58h107.32V3.01Z"/>
      <path class="cls-1" d="m307.89,133.3h-88.46c.64,12.03,4.67,21.6,12.1,28.71,7.43,7.11,17.02,10.66,28.78,10.66,16.41,0,31.54-5.1,45.39-15.31v24.34c-7.66,5.11-15.24,8.75-22.76,10.94s-16.34,3.28-26.46,3.28c-13.86,0-25.07-2.87-33.63-8.61-8.57-5.74-15.43-13.47-20.58-23.17-5.15-9.71-7.72-20.94-7.72-33.7,0-19.14,5.42-34.7,16.27-46.69,10.85-11.98,24.93-17.98,42.25-17.98s29.99,5.83,39.92,17.5c9.93,11.67,14.9,27.3,14.9,46.89v3.14Zm-87.91-14.9h63.3c-.64-9.93-3.6-17.59-8.89-22.97-5.29-5.38-12.4-8.07-21.33-8.07s-16.25,2.69-21.94,8.07c-5.7,5.38-9.41,13.04-11.14,22.97ZM280.82,0l-30.9,41.02h-15.31L253.07,0h27.75Z"/>
      <path class="cls-2" d="m431.97.27c29.51,0,54.08,9.34,73.71,28.03,19.63,18.69,29.44,42.11,29.44,70.27s-9.91,51.47-29.72,69.93-44.79,27.69-74.94,27.69-52.76-9.23-71.94-27.69c-19.17-18.46-28.76-41.58-28.76-69.38s9.65-52.13,28.97-70.82C378.04,9.62,402.45.27,431.97.27Zm1.09,25.98c-21.86,0-39.82,6.84-53.89,20.51-14.07,13.67-21.1,31.13-21.1,52.36s7.06,37.73,21.17,51.41c14.11,13.67,31.78,20.51,53,20.51s39.09-6.97,53.34-20.92c14.25-13.95,21.38-31.31,21.38-52.09s-7.13-37.26-21.38-51.06c-14.25-13.81-31.76-20.71-52.52-20.71Z"/>
      <path class="cls-1" d="m534.3,2.73h159.55v24.34h-66.58v166.93h-27.48V27.07h-65.49V2.73Z"/>
      <path class="cls-1" d="m729.12,15.31c4.1,0,7.61,1.41,10.53,4.24,2.92,2.83,4.38,6.29,4.38,10.39s-1.46,7.47-4.38,10.39-6.43,4.38-10.53,4.38c-3.83,0-7.2-1.48-10.12-4.44-2.92-2.96-4.38-6.4-4.38-10.32s1.46-7.22,4.38-10.19c2.92-2.96,6.29-4.44,10.12-4.44Zm-12.3,52.91h24.88v125.78h-24.88v-125.78Z"/>
    </g>
  </g>
  <g id="_énergies" data-name="énergies">
    <g>
      <path class="cls-1" d="m93.1,318.87H20.44c.52,9.88,3.84,17.74,9.94,23.58,6.1,5.84,13.98,8.76,23.64,8.76,13.48,0,25.9-4.19,37.29-12.58v19.99c-6.29,4.19-12.52,7.19-18.7,8.98s-13.42,2.7-21.73,2.7c-11.38,0-20.59-2.36-27.63-7.08-7.04-4.72-12.67-11.06-16.9-19.04-4.23-7.97-6.35-17.2-6.35-27.68,0-15.72,4.45-28.51,13.36-38.35,8.91-9.84,20.48-14.77,34.7-14.77s24.63,4.79,32.79,14.38c8.16,9.58,12.24,22.42,12.24,38.52v2.58Zm-72.21-12.24h52c-.52-8.16-2.96-14.45-7.3-18.87-4.34-4.42-10.18-6.63-17.52-6.63s-13.35,2.21-18.02,6.63c-4.68,4.42-7.73,10.71-9.15,18.87Zm49.98-97.26l-25.38,33.69h-12.58l15.16-33.69h22.8Z"/>
      <path class="cls-1" d="m135.66,265.41v13.14c9.13-10.11,19.5-15.16,31.11-15.16,6.44,0,12.43,1.67,17.97,5,5.54,3.33,9.75,7.9,12.63,13.7,2.88,5.8,4.32,14.99,4.32,27.57v59.07h-20.44v-58.85c0-10.56-1.61-18.1-4.83-22.63-3.22-4.53-8.61-6.79-16.17-6.79-9.66,0-17.86,4.83-24.59,14.49v73.78h-20.89v-103.32h20.89Z"/>
      <path class="cls-1" d="m318.27,318.87h-72.66c.52,9.88,3.84,17.74,9.94,23.58,6.1,5.84,13.98,8.76,23.64,8.76,13.48,0,25.9-4.19,37.29-12.58v19.99c-6.29,4.19-12.52,7.19-18.7,8.98s-13.42,2.7-21.73,2.7c-11.38,0-20.59-2.36-27.63-7.08-7.04-4.72-12.67-11.06-16.9-19.04-4.23-7.97-6.35-17.2-6.35-27.68,0-15.72,4.45-28.51,13.36-38.35,8.91-9.84,20.48-14.77,34.7-14.77s24.63,4.79,32.79,14.38c8.16,9.58,12.24,22.42,12.24,38.52v2.58Zm-72.21-12.24h52c-.52-8.16-2.96-14.45-7.3-18.87-4.34-4.42-10.18-6.63-17.52-6.63s-13.35,2.21-18.02,6.63c-4.68,4.42-7.73,10.71-9.15,18.87Z"/>
      <path class="cls-1" d="m362.29,265.41v23.7l1.12-1.8c9.88-15.95,19.77-23.92,29.65-23.92,7.71,0,15.76,3.89,24.14,11.68l-10.78,17.97c-7.11-6.74-13.7-10.11-19.77-10.11-6.59,0-12.3,3.14-17.13,9.43s-7.24,13.74-7.24,22.35v54.02h-20.55v-103.32h20.55Z"/>
      <path class="cls-1" d="m426.2,301.12c0-11.01,4.02-19.71,12.07-26.11,8.05-6.4,19.04-9.6,32.96-9.6h42.56v15.95h-20.89c4.04,4.12,6.85,7.86,8.42,11.23s2.36,7.23,2.36,11.57c0,5.39-1.54,10.69-4.6,15.89-3.07,5.2-7.02,9.19-11.85,11.96-4.83,2.77-12.75,4.98-23.75,6.63-7.71,1.12-11.57,3.78-11.57,7.97,0,2.4,1.44,4.36,4.32,5.9,2.88,1.54,8.1,3.13,15.67,4.77,12.65,2.77,20.79,4.94,24.43,6.51,3.63,1.57,6.91,3.82,9.83,6.74,4.94,4.94,7.41,11.16,7.41,18.64,0,9.81-4.36,17.63-13.08,23.47-8.72,5.84-20.38,8.76-34.98,8.76s-26.52-2.94-35.32-8.82c-8.8-5.88-13.2-13.76-13.2-23.64,0-14,8.65-23.02,25.94-27.07-6.89-4.42-10.33-8.8-10.33-13.14,0-3.29,1.48-6.29,4.44-8.98,2.96-2.7,6.94-4.68,11.96-5.95-15.2-6.74-22.8-17.63-22.8-32.68Zm33.58,72.44c-6.89,0-12.52,1.46-16.9,4.38s-6.57,6.66-6.57,11.23c0,10.63,9.58,15.95,28.75,15.95,9.06,0,16.08-1.33,21.06-3.99,4.98-2.66,7.47-6.42,7.47-11.29s-3.14-8.7-9.43-11.74-14.41-4.55-24.37-4.55Zm4.83-90.41c-5.54,0-10.26,1.87-14.15,5.62-3.89,3.75-5.84,8.24-5.84,13.48s1.91,9.71,5.73,13.2,8.65,5.22,14.49,5.22,10.57-1.78,14.43-5.33c3.86-3.56,5.78-7.99,5.78-13.31s-1.95-9.88-5.84-13.48c-3.89-3.59-8.76-5.39-14.6-5.39Z"/>
      <path class="cls-1" d="m540.19,221.95c3.37,0,6.25,1.16,8.65,3.48,2.4,2.32,3.59,5.17,3.59,8.54s-1.2,6.14-3.59,8.54-5.28,3.59-8.65,3.59c-3.14,0-5.92-1.22-8.31-3.65-2.4-2.43-3.59-5.26-3.59-8.48s1.2-5.93,3.59-8.37c2.4-2.43,5.17-3.65,8.31-3.65Zm-10.11,43.46h20.44v103.32h-20.44v-103.32Z"/>
      <path class="cls-1" d="m668.1,318.87h-72.66c.52,9.88,3.84,17.74,9.94,23.58,6.1,5.84,13.98,8.76,23.64,8.76,13.48,0,25.9-4.19,37.29-12.58v19.99c-6.29,4.19-12.52,7.19-18.7,8.98s-13.42,2.7-21.73,2.7c-11.38,0-20.59-2.36-27.63-7.08-7.04-4.72-12.67-11.06-16.9-19.04-4.23-7.97-6.34-17.2-6.34-27.68,0-15.72,4.45-28.51,13.36-38.35,8.91-9.84,20.48-14.77,34.7-14.77s24.63,4.79,32.79,14.38c8.16,9.58,12.24,22.42,12.24,38.52v2.58Zm-72.21-12.24h52c-.52-8.16-2.96-14.45-7.3-18.87-4.34-4.42-10.18-6.63-17.52-6.63s-13.35,2.21-18.03,6.63c-4.68,4.42-7.73,10.71-9.15,18.87Z"/>
      <path class="cls-1" d="m685.17,361.32v-22.01c5.76,4.04,11.66,7.32,17.69,9.83,6.03,2.51,11.1,3.76,15.22,3.76s7.93-1.05,11.01-3.14c3.07-2.09,4.6-4.6,4.6-7.52s-.99-5.48-2.98-7.47c-1.98-1.98-6.27-4.85-12.86-8.59-13.18-7.34-21.81-13.61-25.89-18.81-4.08-5.2-6.12-10.88-6.12-17.01,0-7.93,3.09-14.41,9.26-19.43,6.18-5.01,14.13-7.52,23.87-7.52s20.48,2.85,31.11,8.54v20.21c-12.13-7.34-22.05-11.01-29.76-11.01-3.97,0-7.17.84-9.6,2.53-2.43,1.69-3.65,3.92-3.65,6.69,0,2.4,1.1,4.69,3.31,6.86,2.2,2.17,6.08,4.79,11.62,7.86l7.3,4.15c17.22,9.73,25.84,20.51,25.84,32.33,0,8.46-3.31,15.4-9.94,20.83s-15.14,8.14-25.55,8.14c-6.14,0-11.61-.66-16.4-1.96-4.79-1.31-10.82-3.72-18.08-7.24Z"/>
    </g>
  </g>
</svg>